<?xml version="1.0" encoding="UTF-8" standalone="no"?><svg xmlns="http://www.w3.org/2000/svg" xmlns:xlink="http://www.w3.org/1999/xlink" contentScriptType="application/ecmascript" contentStyleType="text/css" height="931px" preserveAspectRatio="none" style="width:1889px;height:931px;" version="1.1" viewBox="0 0 1889 931" width="1889px" zoomAndPan="magnify"><defs><filter height="300%" id="f170684gixik8o" width="300%" x="-1" y="-1"><feGaussianBlur result="blurOut" stdDeviation="2.0"/><feColorMatrix in="blurOut" result="blurOut2" type="matrix" values="0 0 0 0 0 0 0 0 0 0 0 0 0 0 0 0 0 0 .4 0"/><feOffset dx="4.0" dy="4.0" in="blurOut2" result="blurOut3"/><feBlend in="SourceGraphic" in2="blurOut3" mode="normal"/></filter></defs><g><!--class Medium--><rect fill="#FEFECE" filter="url(#f170684gixik8o)" height="48" id="Medium" style="stroke: #A80036; stroke-width: 1.5;" width="76" x="1211.5" y="872"/><ellipse cx="1226.5" cy="888" fill="#ADD1B2" rx="11" ry="11" style="stroke: #A80036; stroke-width: 1.0;"/><path d="M1225.0781,893.3594 Q1223.2188,893.3594 1222.125,891.9688 Q1221.0313,890.5781 1221.0313,887.5938 Q1221.0313,885.0625 1222.1953,883.4063 Q1223.3594,881.75 1225.3438,881.75 Q1226.8125,881.75 1227.2813,881.875 Q1227.75,882.0781 1227.75,882.0781 Q1227.75,882.0781 1227.75,882.0078 Q1227.75,881.9375 1228.3594,881.0156 L1229.4063,884.6719 L1228.0781,885.0781 Q1227.6094,883.5313 1226.9453,882.8672 Q1226.2813,882.2031 1225.2188,882.2031 Q1224.8281,882.2031 1224.0625,883.7344 Q1223.2969,885.2656 1223.2969,887.5156 Q1223.2969,889.9844 1223.9609,891.375 Q1224.625,892.7656 1225.1563,892.7656 Q1226.2188,892.7656 1226.9766,892 Q1227.7344,891.2344 1228.0781,889.5781 L1229.4063,890.1719 Q1229.0781,891.5781 1228.1797,892.4688 Q1227.2813,893.3594 1225.0781,893.3594 Z "/><text fill="#000000" font-family="sans-serif" font-size="12" lengthAdjust="spacingAndGlyphs" textLength="44" x="1240.5" y="893.5576">Medium</text><line style="stroke: #A80036; stroke-width: 1.5;" x1="1212.5" x2="1286.5" y1="904" y2="904"/><line style="stroke: #A80036; stroke-width: 1.5;" x1="1212.5" x2="1286.5" y1="912" y2="912"/><!--class GenericMediaServer--><rect fill="#FEFECE" filter="url(#f170684gixik8o)" height="48" id="GenericMediaServer" style="stroke: #A80036; stroke-width: 1.5;" width="143" x="908" y="764"/><ellipse cx="923" cy="780" fill="#ADD1B2" rx="11" ry="11" style="stroke: #A80036; stroke-width: 1.0;"/><path d="M921.5781,785.3594 Q919.7188,785.3594 918.625,783.9688 Q917.5313,782.5781 917.5313,779.5938 Q917.5313,777.0625 918.6953,775.4063 Q919.8594,773.75 921.8438,773.75 Q923.3125,773.75 923.7813,773.875 Q924.25,774.0781 924.25,774.0781 Q924.25,774.0781 924.25,774.0078 Q924.25,773.9375 924.8594,773.0156 L925.9063,776.6719 L924.5781,777.0781 Q924.1094,775.5313 923.4453,774.8672 Q922.7813,774.2031 921.7188,774.2031 Q921.3281,774.2031 920.5625,775.7344 Q919.7969,777.2656 919.7969,779.5156 Q919.7969,781.9844 920.4609,783.375 Q921.125,784.7656 921.6563,784.7656 Q922.7188,784.7656 923.4766,784 Q924.2344,783.2344 924.5781,781.5781 L925.9063,782.1719 Q925.5781,783.5781 924.6797,784.4688 Q923.7813,785.3594 921.5781,785.3594 Z "/><text fill="#000000" font-family="sans-serif" font-size="12" lengthAdjust="spacingAndGlyphs" textLength="111" x="937" y="785.5576">GenericMediaServer</text><line style="stroke: #A80036; stroke-width: 1.5;" x1="909" x2="1050" y1="796" y2="796"/><line style="stroke: #A80036; stroke-width: 1.5;" x1="909" x2="1050" y1="804" y2="804"/><!--class ClientConnection--><rect fill="#FEFECE" filter="url(#f170684gixik8o)" height="48" id="ClientConnection" style="stroke: #A80036; stroke-width: 1.5;" width="127" x="974" y="656"/><ellipse cx="989" cy="672" fill="#ADD1B2" rx="11" ry="11" style="stroke: #A80036; stroke-width: 1.0;"/><path d="M987.5781,677.3594 Q985.7188,677.3594 984.625,675.9688 Q983.5313,674.5781 983.5313,671.5938 Q983.5313,669.0625 984.6953,667.4063 Q985.8594,665.75 987.8438,665.75 Q989.3125,665.75 989.7813,665.875 Q990.25,666.0781 990.25,666.0781 Q990.25,666.0781 990.25,666.0078 Q990.25,665.9375 990.8594,665.0156 L991.9063,668.6719 L990.5781,669.0781 Q990.1094,667.5313 989.4453,666.8672 Q988.7813,666.2031 987.7188,666.2031 Q987.3281,666.2031 986.5625,667.7344 Q985.7969,669.2656 985.7969,671.5156 Q985.7969,673.9844 986.4609,675.375 Q987.125,676.7656 987.6563,676.7656 Q988.7188,676.7656 989.4766,676 Q990.2344,675.2344 990.5781,673.5781 L991.9063,674.1719 Q991.5781,675.5781 990.6797,676.4688 Q989.7813,677.3594 987.5781,677.3594 Z "/><text fill="#000000" font-family="sans-serif" font-size="12" lengthAdjust="spacingAndGlyphs" textLength="95" x="1003" y="677.5576">ClientConnection</text><line style="stroke: #A80036; stroke-width: 1.5;" x1="975" x2="1100" y1="688" y2="688"/><line style="stroke: #A80036; stroke-width: 1.5;" x1="975" x2="1100" y1="696" y2="696"/><!--class ClientSession--><rect fill="#FEFECE" filter="url(#f170684gixik8o)" height="48" id="ClientSession" style="stroke: #A80036; stroke-width: 1.5;" width="110" x="757.5" y="656"/><ellipse cx="772.5" cy="672" fill="#ADD1B2" rx="11" ry="11" style="stroke: #A80036; stroke-width: 1.0;"/><path d="M771.0781,677.3594 Q769.2188,677.3594 768.125,675.9688 Q767.0313,674.5781 767.0313,671.5938 Q767.0313,669.0625 768.1953,667.4063 Q769.3594,665.75 771.3438,665.75 Q772.8125,665.75 773.2813,665.875 Q773.75,666.0781 773.75,666.0781 Q773.75,666.0781 773.75,666.0078 Q773.75,665.9375 774.3594,665.0156 L775.4063,668.6719 L774.0781,669.0781 Q773.6094,667.5313 772.9453,666.8672 Q772.2813,666.2031 771.2188,666.2031 Q770.8281,666.2031 770.0625,667.7344 Q769.2969,669.2656 769.2969,671.5156 Q769.2969,673.9844 769.9609,675.375 Q770.625,676.7656 771.1563,676.7656 Q772.2188,676.7656 772.9766,676 Q773.7344,675.2344 774.0781,673.5781 L775.4063,674.1719 Q775.0781,675.5781 774.1797,676.4688 Q773.2813,677.3594 771.0781,677.3594 Z "/><text fill="#000000" font-family="sans-serif" font-size="12" lengthAdjust="spacingAndGlyphs" textLength="78" x="786.5" y="677.5576">ClientSession</text><line style="stroke: #A80036; stroke-width: 1.5;" x1="758.5" x2="866.5" y1="688" y2="688"/><line style="stroke: #A80036; stroke-width: 1.5;" x1="758.5" x2="866.5" y1="696" y2="696"/><!--class RTSPServer--><rect fill="#FEFECE" filter="url(#f170684gixik8o)" height="48" id="RTSPServer" style="stroke: #A80036; stroke-width: 1.5;" width="99" x="747" y="440"/><ellipse cx="762" cy="456" fill="#ADD1B2" rx="11" ry="11" style="stroke: #A80036; stroke-width: 1.0;"/><path d="M760.5781,461.3594 Q758.7188,461.3594 757.625,459.9688 Q756.5313,458.5781 756.5313,455.5938 Q756.5313,453.0625 757.6953,451.4063 Q758.8594,449.75 760.8438,449.75 Q762.3125,449.75 762.7813,449.875 Q763.25,450.0781 763.25,450.0781 Q763.25,450.0781 763.25,450.0078 Q763.25,449.9375 763.8594,449.0156 L764.9063,452.6719 L763.5781,453.0781 Q763.1094,451.5313 762.4453,450.8672 Q761.7813,450.2031 760.7188,450.2031 Q760.3281,450.2031 759.5625,451.7344 Q758.7969,453.2656 758.7969,455.5156 Q758.7969,457.9844 759.4609,459.375 Q760.125,460.7656 760.6563,460.7656 Q761.7188,460.7656 762.4766,460 Q763.2344,459.2344 763.5781,457.5781 L764.9063,458.1719 Q764.5781,459.5781 763.6797,460.4688 Q762.7813,461.3594 760.5781,461.3594 Z "/><text fill="#000000" font-family="sans-serif" font-size="12" lengthAdjust="spacingAndGlyphs" textLength="67" x="776" y="461.5576">RTSPServer</text><line style="stroke: #A80036; stroke-width: 1.5;" x1="748" x2="845" y1="472" y2="472"/><line style="stroke: #A80036; stroke-width: 1.5;" x1="748" x2="845" y1="480" y2="480"/><!--class RTSPClientConnection--><rect fill="#FEFECE" filter="url(#f170684gixik8o)" height="48" id="RTSPClientConnection" style="stroke: #A80036; stroke-width: 1.5;" width="159" x="927" y="332"/><ellipse cx="942" cy="348" fill="#ADD1B2" rx="11" ry="11" style="stroke: #A80036; stroke-width: 1.0;"/><path d="M940.5781,353.3594 Q938.7188,353.3594 937.625,351.9688 Q936.5313,350.5781 936.5313,347.5938 Q936.5313,345.0625 937.6953,343.4063 Q938.8594,341.75 940.8438,341.75 Q942.3125,341.75 942.7813,341.875 Q943.25,342.0781 943.25,342.0781 Q943.25,342.0781 943.25,342.0078 Q943.25,341.9375 943.8594,341.0156 L944.9063,344.6719 L943.5781,345.0781 Q943.1094,343.5313 942.4453,342.8672 Q941.7813,342.2031 940.7188,342.2031 Q940.3281,342.2031 939.5625,343.7344 Q938.7969,345.2656 938.7969,347.5156 Q938.7969,349.9844 939.4609,351.375 Q940.125,352.7656 940.6563,352.7656 Q941.7188,352.7656 942.4766,352 Q943.2344,351.2344 943.5781,349.5781 L944.9063,350.1719 Q944.5781,351.5781 943.6797,352.4688 Q942.7813,353.3594 940.5781,353.3594 Z "/><text fill="#000000" font-family="sans-serif" font-size="12" lengthAdjust="spacingAndGlyphs" textLength="127" x="956" y="353.5576">RTSPClientConnection</text><line style="stroke: #A80036; stroke-width: 1.5;" x1="928" x2="1085" y1="364" y2="364"/><line style="stroke: #A80036; stroke-width: 1.5;" x1="928" x2="1085" y1="372" y2="372"/><!--class RTSPClientSession--><rect fill="#FEFECE" filter="url(#f170684gixik8o)" height="48" id="RTSPClientSession" style="stroke: #A80036; stroke-width: 1.5;" width="142" x="725.5" y="548"/><ellipse cx="740.5" cy="564" fill="#ADD1B2" rx="11" ry="11" style="stroke: #A80036; stroke-width: 1.0;"/><path d="M739.0781,569.3594 Q737.2188,569.3594 736.125,567.9688 Q735.0313,566.5781 735.0313,563.5938 Q735.0313,561.0625 736.1953,559.4063 Q737.3594,557.75 739.3438,557.75 Q740.8125,557.75 741.2813,557.875 Q741.75,558.0781 741.75,558.0781 Q741.75,558.0781 741.75,558.0078 Q741.75,557.9375 742.3594,557.0156 L743.4063,560.6719 L742.0781,561.0781 Q741.6094,559.5313 740.9453,558.8672 Q740.2813,558.2031 739.2188,558.2031 Q738.8281,558.2031 738.0625,559.7344 Q737.2969,561.2656 737.2969,563.5156 Q737.2969,565.9844 737.9609,567.375 Q738.625,568.7656 739.1563,568.7656 Q740.2188,568.7656 740.9766,568 Q741.7344,567.2344 742.0781,565.5781 L743.4063,566.1719 Q743.0781,567.5781 742.1797,568.4688 Q741.2813,569.3594 739.0781,569.3594 Z "/><text fill="#000000" font-family="sans-serif" font-size="12" lengthAdjust="spacingAndGlyphs" textLength="110" x="754.5" y="569.5576">RTSPClientSession</text><line style="stroke: #A80036; stroke-width: 1.5;" x1="726.5" x2="866.5" y1="580" y2="580"/><line style="stroke: #A80036; stroke-width: 1.5;" x1="726.5" x2="866.5" y1="588" y2="588"/><!--class ServerMediaSessionIterator--><rect fill="#FEFECE" filter="url(#f170684gixik8o)" height="48" id="ServerMediaSessionIterator" style="stroke: #A80036; stroke-width: 1.5;" width="184" x="506.5" y="548"/><ellipse cx="521.5" cy="564" fill="#ADD1B2" rx="11" ry="11" style="stroke: #A80036; stroke-width: 1.0;"/><path d="M520.0781,569.3594 Q518.2188,569.3594 517.125,567.9688 Q516.0313,566.5781 516.0313,563.5938 Q516.0313,561.0625 517.1953,559.4063 Q518.3594,557.75 520.3438,557.75 Q521.8125,557.75 522.2813,557.875 Q522.75,558.0781 522.75,558.0781 Q522.75,558.0781 522.75,558.0078 Q522.75,557.9375 523.3594,557.0156 L524.4063,560.6719 L523.0781,561.0781 Q522.6094,559.5313 521.9453,558.8672 Q521.2813,558.2031 520.2188,558.2031 Q519.8281,558.2031 519.0625,559.7344 Q518.2969,561.2656 518.2969,563.5156 Q518.2969,565.9844 518.9609,567.375 Q519.625,568.7656 520.1563,568.7656 Q521.2188,568.7656 521.9766,568 Q522.7344,567.2344 523.0781,565.5781 L524.4063,566.1719 Q524.0781,567.5781 523.1797,568.4688 Q522.2813,569.3594 520.0781,569.3594 Z "/><text fill="#000000" font-family="sans-serif" font-size="12" lengthAdjust="spacingAndGlyphs" textLength="152" x="535.5" y="569.5576">ServerMediaSessionIterator</text><line style="stroke: #A80036; stroke-width: 1.5;" x1="507.5" x2="689.5" y1="580" y2="580"/><line style="stroke: #A80036; stroke-width: 1.5;" x1="507.5" x2="689.5" y1="588" y2="588"/><!--class RegisterRequestRecord--><rect fill="#FEFECE" filter="url(#f170684gixik8o)" height="48" id="RegisterRequestRecord" style="stroke: #A80036; stroke-width: 1.5;" width="166" x="305.5" y="548"/><ellipse cx="320.5" cy="564" fill="#ADD1B2" rx="11" ry="11" style="stroke: #A80036; stroke-width: 1.0;"/><path d="M319.0781,569.3594 Q317.2188,569.3594 316.125,567.9688 Q315.0313,566.5781 315.0313,563.5938 Q315.0313,561.0625 316.1953,559.4063 Q317.3594,557.75 319.3438,557.75 Q320.8125,557.75 321.2813,557.875 Q321.75,558.0781 321.75,558.0781 Q321.75,558.0781 321.75,558.0078 Q321.75,557.9375 322.3594,557.0156 L323.4063,560.6719 L322.0781,561.0781 Q321.6094,559.5313 320.9453,558.8672 Q320.2813,558.2031 319.2188,558.2031 Q318.8281,558.2031 318.0625,559.7344 Q317.2969,561.2656 317.2969,563.5156 Q317.2969,565.9844 317.9609,567.375 Q318.625,568.7656 319.1563,568.7656 Q320.2188,568.7656 320.9766,568 Q321.7344,567.2344 322.0781,565.5781 L323.4063,566.1719 Q323.0781,567.5781 322.1797,568.4688 Q321.2813,569.3594 319.0781,569.3594 Z "/><text fill="#000000" font-family="sans-serif" font-size="12" lengthAdjust="spacingAndGlyphs" textLength="134" x="334.5" y="569.5576">RegisterRequestRecord</text><line style="stroke: #A80036; stroke-width: 1.5;" x1="306.5" x2="470.5" y1="580" y2="580"/><line style="stroke: #A80036; stroke-width: 1.5;" x1="306.5" x2="470.5" y1="588" y2="588"/><!--class RTSPRegisterSender--><rect fill="#FEFECE" filter="url(#f170684gixik8o)" height="48" id="RTSPRegisterSender" style="stroke: #A80036; stroke-width: 1.5;" width="151" x="48" y="656"/><ellipse cx="63" cy="672" fill="#ADD1B2" rx="11" ry="11" style="stroke: #A80036; stroke-width: 1.0;"/><path d="M61.5781,677.3594 Q59.7188,677.3594 58.625,675.9688 Q57.5313,674.5781 57.5313,671.5938 Q57.5313,669.0625 58.6953,667.4063 Q59.8594,665.75 61.8438,665.75 Q63.3125,665.75 63.7813,665.875 Q64.25,666.0781 64.25,666.0781 Q64.25,666.0781 64.25,666.0078 Q64.25,665.9375 64.8594,665.0156 L65.9063,668.6719 L64.5781,669.0781 Q64.1094,667.5313 63.4453,666.8672 Q62.7813,666.2031 61.7188,666.2031 Q61.3281,666.2031 60.5625,667.7344 Q59.7969,669.2656 59.7969,671.5156 Q59.7969,673.9844 60.4609,675.375 Q61.125,676.7656 61.6563,676.7656 Q62.7188,676.7656 63.4766,676 Q64.2344,675.2344 64.5781,673.5781 L65.9063,674.1719 Q65.5781,675.5781 64.6797,676.4688 Q63.7813,677.3594 61.5781,677.3594 Z "/><text fill="#000000" font-family="sans-serif" font-size="12" lengthAdjust="spacingAndGlyphs" textLength="119" x="77" y="677.5576">RTSPRegisterSender</text><line style="stroke: #A80036; stroke-width: 1.5;" x1="49" x2="198" y1="688" y2="688"/><line style="stroke: #A80036; stroke-width: 1.5;" x1="49" x2="198" y1="696" y2="696"/><!--class RTSPClient--><rect fill="#FEFECE" filter="url(#f170684gixik8o)" height="48" id="RTSPClient" style="stroke: #A80036; stroke-width: 1.5;" width="96" x="228.5" y="764"/><ellipse cx="243.5" cy="780" fill="#ADD1B2" rx="11" ry="11" style="stroke: #A80036; stroke-width: 1.0;"/><path d="M242.0781,785.3594 Q240.2188,785.3594 239.125,783.9688 Q238.0313,782.5781 238.0313,779.5938 Q238.0313,777.0625 239.1953,775.4063 Q240.3594,773.75 242.3438,773.75 Q243.8125,773.75 244.2813,773.875 Q244.75,774.0781 244.75,774.0781 Q244.75,774.0781 244.75,774.0078 Q244.75,773.9375 245.3594,773.0156 L246.4063,776.6719 L245.0781,777.0781 Q244.6094,775.5313 243.9453,774.8672 Q243.2813,774.2031 242.2188,774.2031 Q241.8281,774.2031 241.0625,775.7344 Q240.2969,777.2656 240.2969,779.5156 Q240.2969,781.9844 240.9609,783.375 Q241.625,784.7656 242.1563,784.7656 Q243.2188,784.7656 243.9766,784 Q244.7344,783.2344 245.0781,781.5781 L246.4063,782.1719 Q246.0781,783.5781 245.1797,784.4688 Q244.2813,785.3594 242.0781,785.3594 Z "/><text fill="#000000" font-family="sans-serif" font-size="12" lengthAdjust="spacingAndGlyphs" textLength="64" x="257.5" y="785.5576">RTSPClient</text><line style="stroke: #A80036; stroke-width: 1.5;" x1="229.5" x2="323.5" y1="796" y2="796"/><line style="stroke: #A80036; stroke-width: 1.5;" x1="229.5" x2="323.5" y1="804" y2="804"/><!--class RequestRecord_REGISTER--><rect fill="#FEFECE" filter="url(#f170684gixik8o)" height="48" id="RequestRecord_REGISTER" style="stroke: #A80036; stroke-width: 1.5;" width="187" x="6" y="764"/><ellipse cx="21" cy="780" fill="#ADD1B2" rx="11" ry="11" style="stroke: #A80036; stroke-width: 1.0;"/><path d="M19.5781,785.3594 Q17.7188,785.3594 16.625,783.9688 Q15.5313,782.5781 15.5313,779.5938 Q15.5313,777.0625 16.6953,775.4063 Q17.8594,773.75 19.8438,773.75 Q21.3125,773.75 21.7813,773.875 Q22.25,774.0781 22.25,774.0781 Q22.25,774.0781 22.25,774.0078 Q22.25,773.9375 22.8594,773.0156 L23.9063,776.6719 L22.5781,777.0781 Q22.1094,775.5313 21.4453,774.8672 Q20.7813,774.2031 19.7188,774.2031 Q19.3281,774.2031 18.5625,775.7344 Q17.7969,777.2656 17.7969,779.5156 Q17.7969,781.9844 18.4609,783.375 Q19.125,784.7656 19.6563,784.7656 Q20.7188,784.7656 21.4766,784 Q22.2344,783.2344 22.5781,781.5781 L23.9063,782.1719 Q23.5781,783.5781 22.6797,784.4688 Q21.7813,785.3594 19.5781,785.3594 Z "/><text fill="#000000" font-family="sans-serif" font-size="12" lengthAdjust="spacingAndGlyphs" textLength="155" x="35" y="785.5576">RequestRecord_REGISTER</text><line style="stroke: #A80036; stroke-width: 1.5;" x1="7" x2="192" y1="796" y2="796"/><line style="stroke: #A80036; stroke-width: 1.5;" x1="7" x2="192" y1="804" y2="804"/><!--class RequestRecord--><rect fill="#FEFECE" filter="url(#f170684gixik8o)" height="48" id="RequestRecord" style="stroke: #A80036; stroke-width: 1.5;" width="119" x="52" y="872"/><ellipse cx="67" cy="888" fill="#ADD1B2" rx="11" ry="11" style="stroke: #A80036; stroke-width: 1.0;"/><path d="M65.5781,893.3594 Q63.7188,893.3594 62.625,891.9688 Q61.5313,890.5781 61.5313,887.5938 Q61.5313,885.0625 62.6953,883.4063 Q63.8594,881.75 65.8438,881.75 Q67.3125,881.75 67.7813,881.875 Q68.25,882.0781 68.25,882.0781 Q68.25,882.0781 68.25,882.0078 Q68.25,881.9375 68.8594,881.0156 L69.9063,884.6719 L68.5781,885.0781 Q68.1094,883.5313 67.4453,882.8672 Q66.7813,882.2031 65.7188,882.2031 Q65.3281,882.2031 64.5625,883.7344 Q63.7969,885.2656 63.7969,887.5156 Q63.7969,889.9844 64.4609,891.375 Q65.125,892.7656 65.6563,892.7656 Q66.7188,892.7656 67.4766,892 Q68.2344,891.2344 68.5781,889.5781 L69.9063,890.1719 Q69.5781,891.5781 68.6797,892.4688 Q67.7813,893.3594 65.5781,893.3594 Z "/><text fill="#000000" font-family="sans-serif" font-size="12" lengthAdjust="spacingAndGlyphs" textLength="87" x="81" y="893.5576">RequestRecord</text><line style="stroke: #A80036; stroke-width: 1.5;" x1="53" x2="170" y1="904" y2="904"/><line style="stroke: #A80036; stroke-width: 1.5;" x1="53" x2="170" y1="912" y2="912"/><!--class RTSPServerWithREGISTERProxying--><rect fill="#FEFECE" filter="url(#f170684gixik8o)" height="48" id="RTSPServerWithREGISTERProxying" style="stroke: #A80036; stroke-width: 1.5;" width="230" x="305.5" y="332"/><ellipse cx="320.5" cy="348" fill="#ADD1B2" rx="11" ry="11" style="stroke: #A80036; stroke-width: 1.0;"/><path d="M319.0781,353.3594 Q317.2188,353.3594 316.125,351.9688 Q315.0313,350.5781 315.0313,347.5938 Q315.0313,345.0625 316.1953,343.4063 Q317.3594,341.75 319.3438,341.75 Q320.8125,341.75 321.2813,341.875 Q321.75,342.0781 321.75,342.0781 Q321.75,342.0781 321.75,342.0078 Q321.75,341.9375 322.3594,341.0156 L323.4063,344.6719 L322.0781,345.0781 Q321.6094,343.5313 320.9453,342.8672 Q320.2813,342.2031 319.2188,342.2031 Q318.8281,342.2031 318.0625,343.7344 Q317.2969,345.2656 317.2969,347.5156 Q317.2969,349.9844 317.9609,351.375 Q318.625,352.7656 319.1563,352.7656 Q320.2188,352.7656 320.9766,352 Q321.7344,351.2344 322.0781,349.5781 L323.4063,350.1719 Q323.0781,351.5781 322.1797,352.4688 Q321.2813,353.3594 319.0781,353.3594 Z "/><text fill="#000000" font-family="sans-serif" font-size="12" lengthAdjust="spacingAndGlyphs" textLength="198" x="334.5" y="353.5576">RTSPServerWithREGISTERProxying</text><line style="stroke: #A80036; stroke-width: 1.5;" x1="306.5" x2="534.5" y1="364" y2="364"/><line style="stroke: #A80036; stroke-width: 1.5;" x1="306.5" x2="534.5" y1="372" y2="372"/><!--class ParamsForREGISTER--><rect fill="#FEFECE" filter="url(#f170684gixik8o)" height="48" id="ParamsForREGISTER" style="stroke: #A80036; stroke-width: 1.5;" width="155" x="1045" y="440"/><ellipse cx="1060" cy="456" fill="#ADD1B2" rx="11" ry="11" style="stroke: #A80036; stroke-width: 1.0;"/><path d="M1058.5781,461.3594 Q1056.7188,461.3594 1055.625,459.9688 Q1054.5313,458.5781 1054.5313,455.5938 Q1054.5313,453.0625 1055.6953,451.4063 Q1056.8594,449.75 1058.8438,449.75 Q1060.3125,449.75 1060.7813,449.875 Q1061.25,450.0781 1061.25,450.0781 Q1061.25,450.0781 1061.25,450.0078 Q1061.25,449.9375 1061.8594,449.0156 L1062.9063,452.6719 L1061.5781,453.0781 Q1061.1094,451.5313 1060.4453,450.8672 Q1059.7813,450.2031 1058.7188,450.2031 Q1058.3281,450.2031 1057.5625,451.7344 Q1056.7969,453.2656 1056.7969,455.5156 Q1056.7969,457.9844 1057.4609,459.375 Q1058.125,460.7656 1058.6563,460.7656 Q1059.7188,460.7656 1060.4766,460 Q1061.2344,459.2344 1061.5781,457.5781 L1062.9063,458.1719 Q1062.5781,459.5781 1061.6797,460.4688 Q1060.7813,461.3594 1058.5781,461.3594 Z "/><text fill="#000000" font-family="sans-serif" font-size="12" lengthAdjust="spacingAndGlyphs" textLength="123" x="1074" y="461.5576">ParamsForREGISTER</text><line style="stroke: #A80036; stroke-width: 1.5;" x1="1046" x2="1199" y1="472" y2="472"/><line style="stroke: #A80036; stroke-width: 1.5;" x1="1046" x2="1199" y1="480" y2="480"/><!--class streamState--><rect fill="#FEFECE" filter="url(#f170684gixik8o)" height="48" id="streamState" style="stroke: #A80036; stroke-width: 1.5;" width="99" x="623" y="656"/><ellipse cx="638" cy="672" fill="#ADD1B2" rx="11" ry="11" style="stroke: #A80036; stroke-width: 1.0;"/><path d="M636.5781,677.3594 Q634.7188,677.3594 633.625,675.9688 Q632.5313,674.5781 632.5313,671.5938 Q632.5313,669.0625 633.6953,667.4063 Q634.8594,665.75 636.8438,665.75 Q638.3125,665.75 638.7813,665.875 Q639.25,666.0781 639.25,666.0781 Q639.25,666.0781 639.25,666.0078 Q639.25,665.9375 639.8594,665.0156 L640.9063,668.6719 L639.5781,669.0781 Q639.1094,667.5313 638.4453,666.8672 Q637.7813,666.2031 636.7188,666.2031 Q636.3281,666.2031 635.5625,667.7344 Q634.7969,669.2656 634.7969,671.5156 Q634.7969,673.9844 635.4609,675.375 Q636.125,676.7656 636.6563,676.7656 Q637.7188,676.7656 638.4766,676 Q639.2344,675.2344 639.5781,673.5781 L640.9063,674.1719 Q640.5781,675.5781 639.6797,676.4688 Q638.7813,677.3594 636.5781,677.3594 Z "/><text fill="#000000" font-family="sans-serif" font-size="12" lengthAdjust="spacingAndGlyphs" textLength="67" x="652" y="677.5576">streamState</text><line style="stroke: #A80036; stroke-width: 1.5;" x1="624" x2="721" y1="688" y2="688"/><line style="stroke: #A80036; stroke-width: 1.5;" x1="624" x2="721" y1="696" y2="696"/><!--class RTSPServerSupportingHTTPStreaming--><rect fill="#FEFECE" filter="url(#f170684gixik8o)" height="48" id="RTSPServerSupportingHTTPStreaming" style="stroke: #A80036; stroke-width: 1.5;" width="247" x="853" y="116"/><ellipse cx="868" cy="132" fill="#ADD1B2" rx="11" ry="11" style="stroke: #A80036; stroke-width: 1.0;"/><path d="M866.5781,137.3594 Q864.7188,137.3594 863.625,135.9688 Q862.5313,134.5781 862.5313,131.5938 Q862.5313,129.0625 863.6953,127.4063 Q864.8594,125.75 866.8438,125.75 Q868.3125,125.75 868.7813,125.875 Q869.25,126.0781 869.25,126.0781 Q869.25,126.0781 869.25,126.0078 Q869.25,125.9375 869.8594,125.0156 L870.9063,128.6719 L869.5781,129.0781 Q869.1094,127.5313 868.4453,126.8672 Q867.7813,126.2031 866.7188,126.2031 Q866.3281,126.2031 865.5625,127.7344 Q864.7969,129.2656 864.7969,131.5156 Q864.7969,133.9844 865.4609,135.375 Q866.125,136.7656 866.6563,136.7656 Q867.7188,136.7656 868.4766,136 Q869.2344,135.2344 869.5781,133.5781 L870.9063,134.1719 Q870.5781,135.5781 869.6797,136.4688 Q868.7813,137.3594 866.5781,137.3594 Z "/><text fill="#000000" font-family="sans-serif" font-size="12" lengthAdjust="spacingAndGlyphs" textLength="215" x="882" y="137.5576">RTSPServerSupportingHTTPStreaming</text><line style="stroke: #A80036; stroke-width: 1.5;" x1="854" x2="1099" y1="148" y2="148"/><line style="stroke: #A80036; stroke-width: 1.5;" x1="854" x2="1099" y1="156" y2="156"/><!--class RTSPClientConnectionSupportingHTTPStreaming--><rect fill="#FEFECE" filter="url(#f170684gixik8o)" height="48" id="RTSPClientConnectionSupportingHTTPStreaming" style="stroke: #A80036; stroke-width: 1.5;" width="307" x="927" y="224"/><ellipse cx="942" cy="240" fill="#ADD1B2" rx="11" ry="11" style="stroke: #A80036; stroke-width: 1.0;"/><path d="M940.5781,245.3594 Q938.7188,245.3594 937.625,243.9688 Q936.5313,242.5781 936.5313,239.5938 Q936.5313,237.0625 937.6953,235.4063 Q938.8594,233.75 940.8438,233.75 Q942.3125,233.75 942.7813,233.875 Q943.25,234.0781 943.25,234.0781 Q943.25,234.0781 943.25,234.0078 Q943.25,233.9375 943.8594,233.0156 L944.9063,236.6719 L943.5781,237.0781 Q943.1094,235.5313 942.4453,234.8672 Q941.7813,234.2031 940.7188,234.2031 Q940.3281,234.2031 939.5625,235.7344 Q938.7969,237.2656 938.7969,239.5156 Q938.7969,241.9844 939.4609,243.375 Q940.125,244.7656 940.6563,244.7656 Q941.7188,244.7656 942.4766,244 Q943.2344,243.2344 943.5781,241.5781 L944.9063,242.1719 Q944.5781,243.5781 943.6797,244.4688 Q942.7813,245.3594 940.5781,245.3594 Z "/><text fill="#000000" font-family="sans-serif" font-size="12" lengthAdjust="spacingAndGlyphs" textLength="275" x="956" y="245.5576">RTSPClientConnectionSupportingHTTPStreaming</text><line style="stroke: #A80036; stroke-width: 1.5;" x1="928" x2="1233" y1="256" y2="256"/><line style="stroke: #A80036; stroke-width: 1.5;" x1="928" x2="1233" y1="264" y2="264"/><!--class DynamicRTSPServer--><rect fill="#FEFECE" filter="url(#f170684gixik8o)" height="48" id="DynamicRTSPServer" style="stroke: #A80036; stroke-width: 1.5;" width="147" x="903" y="8"/><ellipse cx="918" cy="24" fill="#ADD1B2" rx="11" ry="11" style="stroke: #A80036; stroke-width: 1.0;"/><path d="M916.5781,29.3594 Q914.7188,29.3594 913.625,27.9688 Q912.5313,26.5781 912.5313,23.5938 Q912.5313,21.0625 913.6953,19.4063 Q914.8594,17.75 916.8438,17.75 Q918.3125,17.75 918.7813,17.875 Q919.25,18.0781 919.25,18.0781 Q919.25,18.0781 919.25,18.0078 Q919.25,17.9375 919.8594,17.0156 L920.9063,20.6719 L919.5781,21.0781 Q919.1094,19.5313 918.4453,18.8672 Q917.7813,18.2031 916.7188,18.2031 Q916.3281,18.2031 915.5625,19.7344 Q914.7969,21.2656 914.7969,23.5156 Q914.7969,25.9844 915.4609,27.375 Q916.125,28.7656 916.6563,28.7656 Q917.7188,28.7656 918.4766,28 Q919.2344,27.2344 919.5781,25.5781 L920.9063,26.1719 Q920.5781,27.5781 919.6797,28.4688 Q918.7813,29.3594 916.5781,29.3594 Z "/><text fill="#000000" font-family="sans-serif" font-size="12" lengthAdjust="spacingAndGlyphs" textLength="115" x="932" y="29.5576">DynamicRTSPServer</text><line style="stroke: #A80036; stroke-width: 1.5;" x1="904" x2="1049" y1="40" y2="40"/><line style="stroke: #A80036; stroke-width: 1.5;" x1="904" x2="1049" y1="48" y2="48"/><!--class RequestQueue--><rect fill="#FEFECE" filter="url(#f170684gixik8o)" height="48" id="RequestQueue" style="stroke: #A80036; stroke-width: 1.5;" width="116" x="218.5" y="872"/><ellipse cx="233.5" cy="888" fill="#ADD1B2" rx="11" ry="11" style="stroke: #A80036; stroke-width: 1.0;"/><path d="M232.0781,893.3594 Q230.2188,893.3594 229.125,891.9688 Q228.0313,890.5781 228.0313,887.5938 Q228.0313,885.0625 229.1953,883.4063 Q230.3594,881.75 232.3438,881.75 Q233.8125,881.75 234.2813,881.875 Q234.75,882.0781 234.75,882.0781 Q234.75,882.0781 234.75,882.0078 Q234.75,881.9375 235.3594,881.0156 L236.4063,884.6719 L235.0781,885.0781 Q234.6094,883.5313 233.9453,882.8672 Q233.2813,882.2031 232.2188,882.2031 Q231.8281,882.2031 231.0625,883.7344 Q230.2969,885.2656 230.2969,887.5156 Q230.2969,889.9844 230.9609,891.375 Q231.625,892.7656 232.1563,892.7656 Q233.2188,892.7656 233.9766,892 Q234.7344,891.2344 235.0781,889.5781 L236.4063,890.1719 Q236.0781,891.5781 235.1797,892.4688 Q234.2813,893.3594 232.0781,893.3594 Z "/><text fill="#000000" font-family="sans-serif" font-size="12" lengthAdjust="spacingAndGlyphs" textLength="84" x="247.5" y="893.5576">RequestQueue</text><line style="stroke: #A80036; stroke-width: 1.5;" x1="219.5" x2="333.5" y1="904" y2="904"/><line style="stroke: #A80036; stroke-width: 1.5;" x1="219.5" x2="333.5" y1="912" y2="912"/><!--class HandlerServerForREGISTERCommand--><rect fill="#FEFECE" filter="url(#f170684gixik8o)" height="48" id="HandlerServerForREGISTERCommand" style="stroke: #A80036; stroke-width: 1.5;" width="249" x="571" y="332"/><ellipse cx="586" cy="348" fill="#ADD1B2" rx="11" ry="11" style="stroke: #A80036; stroke-width: 1.0;"/><path d="M584.5781,353.3594 Q582.7188,353.3594 581.625,351.9688 Q580.5313,350.5781 580.5313,347.5938 Q580.5313,345.0625 581.6953,343.4063 Q582.8594,341.75 584.8438,341.75 Q586.3125,341.75 586.7813,341.875 Q587.25,342.0781 587.25,342.0781 Q587.25,342.0781 587.25,342.0078 Q587.25,341.9375 587.8594,341.0156 L588.9063,344.6719 L587.5781,345.0781 Q587.1094,343.5313 586.4453,342.8672 Q585.7813,342.2031 584.7188,342.2031 Q584.3281,342.2031 583.5625,343.7344 Q582.7969,345.2656 582.7969,347.5156 Q582.7969,349.9844 583.4609,351.375 Q584.125,352.7656 584.6563,352.7656 Q585.7188,352.7656 586.4766,352 Q587.2344,351.2344 587.5781,349.5781 L588.9063,350.1719 Q588.5781,351.5781 587.6797,352.4688 Q586.7813,353.3594 584.5781,353.3594 Z "/><text fill="#000000" font-family="sans-serif" font-size="12" lengthAdjust="spacingAndGlyphs" textLength="217" x="600" y="353.5576">HandlerServerForREGISTERCommand</text><line style="stroke: #A80036; stroke-width: 1.5;" x1="572" x2="819" y1="364" y2="364"/><line style="stroke: #A80036; stroke-width: 1.5;" x1="572" x2="819" y1="372" y2="372"/><!--class ProxyRTSPClient--><rect fill="#FEFECE" filter="url(#f170684gixik8o)" height="48" id="ProxyRTSPClient" style="stroke: #A80036; stroke-width: 1.5;" width="125" x="1570" y="224"/><ellipse cx="1585" cy="240" fill="#ADD1B2" rx="11" ry="11" style="stroke: #A80036; stroke-width: 1.0;"/><path d="M1583.5781,245.3594 Q1581.7188,245.3594 1580.625,243.9688 Q1579.5313,242.5781 1579.5313,239.5938 Q1579.5313,237.0625 1580.6953,235.4063 Q1581.8594,233.75 1583.8438,233.75 Q1585.3125,233.75 1585.7813,233.875 Q1586.25,234.0781 1586.25,234.0781 Q1586.25,234.0781 1586.25,234.0078 Q1586.25,233.9375 1586.8594,233.0156 L1587.9063,236.6719 L1586.5781,237.0781 Q1586.1094,235.5313 1585.4453,234.8672 Q1584.7813,234.2031 1583.7188,234.2031 Q1583.3281,234.2031 1582.5625,235.7344 Q1581.7969,237.2656 1581.7969,239.5156 Q1581.7969,241.9844 1582.4609,243.375 Q1583.125,244.7656 1583.6563,244.7656 Q1584.7188,244.7656 1585.4766,244 Q1586.2344,243.2344 1586.5781,241.5781 L1587.9063,242.1719 Q1587.5781,243.5781 1586.6797,244.4688 Q1585.7813,245.3594 1583.5781,245.3594 Z "/><text fill="#000000" font-family="sans-serif" font-size="12" lengthAdjust="spacingAndGlyphs" textLength="93" x="1599" y="245.5576">ProxyRTSPClient</text><line style="stroke: #A80036; stroke-width: 1.5;" x1="1571" x2="1694" y1="256" y2="256"/><line style="stroke: #A80036; stroke-width: 1.5;" x1="1571" x2="1694" y1="264" y2="264"/><!--class ProxyServerMediaSession--><rect fill="#FEFECE" filter="url(#f170684gixik8o)" height="48" id="ProxyServerMediaSession" style="stroke: #A80036; stroke-width: 1.5;" width="175" x="1703" y="332"/><ellipse cx="1718" cy="348" fill="#ADD1B2" rx="11" ry="11" style="stroke: #A80036; stroke-width: 1.0;"/><path d="M1716.5781,353.3594 Q1714.7188,353.3594 1713.625,351.9688 Q1712.5313,350.5781 1712.5313,347.5938 Q1712.5313,345.0625 1713.6953,343.4063 Q1714.8594,341.75 1716.8438,341.75 Q1718.3125,341.75 1718.7813,341.875 Q1719.25,342.0781 1719.25,342.0781 Q1719.25,342.0781 1719.25,342.0078 Q1719.25,341.9375 1719.8594,341.0156 L1720.9063,344.6719 L1719.5781,345.0781 Q1719.1094,343.5313 1718.4453,342.8672 Q1717.7813,342.2031 1716.7188,342.2031 Q1716.3281,342.2031 1715.5625,343.7344 Q1714.7969,345.2656 1714.7969,347.5156 Q1714.7969,349.9844 1715.4609,351.375 Q1716.125,352.7656 1716.6563,352.7656 Q1717.7188,352.7656 1718.4766,352 Q1719.2344,351.2344 1719.5781,349.5781 L1720.9063,350.1719 Q1720.5781,351.5781 1719.6797,352.4688 Q1718.7813,353.3594 1716.5781,353.3594 Z "/><text fill="#000000" font-family="sans-serif" font-size="12" lengthAdjust="spacingAndGlyphs" textLength="143" x="1732" y="353.5576">ProxyServerMediaSession</text><line style="stroke: #A80036; stroke-width: 1.5;" x1="1704" x2="1877" y1="364" y2="364"/><line style="stroke: #A80036; stroke-width: 1.5;" x1="1704" x2="1877" y1="372" y2="372"/><!--class ProxyServerMediaSubsession--><rect fill="#FEFECE" filter="url(#f170684gixik8o)" height="48" id="ProxyServerMediaSubsession" style="stroke: #A80036; stroke-width: 1.5;" width="196" x="1534.5" y="440"/><ellipse cx="1549.5" cy="456" fill="#ADD1B2" rx="11" ry="11" style="stroke: #A80036; stroke-width: 1.0;"/><path d="M1548.0781,461.3594 Q1546.2188,461.3594 1545.125,459.9688 Q1544.0313,458.5781 1544.0313,455.5938 Q1544.0313,453.0625 1545.1953,451.4063 Q1546.3594,449.75 1548.3438,449.75 Q1549.8125,449.75 1550.2813,449.875 Q1550.75,450.0781 1550.75,450.0781 Q1550.75,450.0781 1550.75,450.0078 Q1550.75,449.9375 1551.3594,449.0156 L1552.4063,452.6719 L1551.0781,453.0781 Q1550.6094,451.5313 1549.9453,450.8672 Q1549.2813,450.2031 1548.2188,450.2031 Q1547.8281,450.2031 1547.0625,451.7344 Q1546.2969,453.2656 1546.2969,455.5156 Q1546.2969,457.9844 1546.9609,459.375 Q1547.625,460.7656 1548.1563,460.7656 Q1549.2188,460.7656 1549.9766,460 Q1550.7344,459.2344 1551.0781,457.5781 L1552.4063,458.1719 Q1552.0781,459.5781 1551.1797,460.4688 Q1550.2813,461.3594 1548.0781,461.3594 Z "/><text fill="#000000" font-family="sans-serif" font-size="12" lengthAdjust="spacingAndGlyphs" textLength="164" x="1563.5" y="461.5576">ProxyServerMediaSubsession</text><line style="stroke: #A80036; stroke-width: 1.5;" x1="1535.5" x2="1729.5" y1="472" y2="472"/><line style="stroke: #A80036; stroke-width: 1.5;" x1="1535.5" x2="1729.5" y1="480" y2="480"/><!--class ServerMediaSession--><rect fill="#FEFECE" filter="url(#f170684gixik8o)" height="48" id="ServerMediaSession" style="stroke: #A80036; stroke-width: 1.5;" width="146" x="1564.5" y="764"/><ellipse cx="1579.5" cy="780" fill="#ADD1B2" rx="11" ry="11" style="stroke: #A80036; stroke-width: 1.0;"/><path d="M1578.0781,785.3594 Q1576.2188,785.3594 1575.125,783.9688 Q1574.0313,782.5781 1574.0313,779.5938 Q1574.0313,777.0625 1575.1953,775.4063 Q1576.3594,773.75 1578.3438,773.75 Q1579.8125,773.75 1580.2813,773.875 Q1580.75,774.0781 1580.75,774.0781 Q1580.75,774.0781 1580.75,774.0078 Q1580.75,773.9375 1581.3594,773.0156 L1582.4063,776.6719 L1581.0781,777.0781 Q1580.6094,775.5313 1579.9453,774.8672 Q1579.2813,774.2031 1578.2188,774.2031 Q1577.8281,774.2031 1577.0625,775.7344 Q1576.2969,777.2656 1576.2969,779.5156 Q1576.2969,781.9844 1576.9609,783.375 Q1577.625,784.7656 1578.1563,784.7656 Q1579.2188,784.7656 1579.9766,784 Q1580.7344,783.2344 1581.0781,781.5781 L1582.4063,782.1719 Q1582.0781,783.5781 1581.1797,784.4688 Q1580.2813,785.3594 1578.0781,785.3594 Z "/><text fill="#000000" font-family="sans-serif" font-size="12" lengthAdjust="spacingAndGlyphs" textLength="114" x="1593.5" y="785.5576">ServerMediaSession</text><line style="stroke: #A80036; stroke-width: 1.5;" x1="1565.5" x2="1709.5" y1="796" y2="796"/><line style="stroke: #A80036; stroke-width: 1.5;" x1="1565.5" x2="1709.5" y1="804" y2="804"/><!--class ServerMediaSubsessionIterator--><rect fill="#FEFECE" filter="url(#f170684gixik8o)" height="48" id="ServerMediaSubsessionIterator" style="stroke: #A80036; stroke-width: 1.5;" width="205" x="1598" y="872"/><ellipse cx="1613" cy="888" fill="#ADD1B2" rx="11" ry="11" style="stroke: #A80036; stroke-width: 1.0;"/><path d="M1611.5781,893.3594 Q1609.7188,893.3594 1608.625,891.9688 Q1607.5313,890.5781 1607.5313,887.5938 Q1607.5313,885.0625 1608.6953,883.4063 Q1609.8594,881.75 1611.8438,881.75 Q1613.3125,881.75 1613.7813,881.875 Q1614.25,882.0781 1614.25,882.0781 Q1614.25,882.0781 1614.25,882.0078 Q1614.25,881.9375 1614.8594,881.0156 L1615.9063,884.6719 L1614.5781,885.0781 Q1614.1094,883.5313 1613.4453,882.8672 Q1612.7813,882.2031 1611.7188,882.2031 Q1611.3281,882.2031 1610.5625,883.7344 Q1609.7969,885.2656 1609.7969,887.5156 Q1609.7969,889.9844 1610.4609,891.375 Q1611.125,892.7656 1611.6563,892.7656 Q1612.7188,892.7656 1613.4766,892 Q1614.2344,891.2344 1614.5781,889.5781 L1615.9063,890.1719 Q1615.5781,891.5781 1614.6797,892.4688 Q1613.7813,893.3594 1611.5781,893.3594 Z "/><text fill="#000000" font-family="sans-serif" font-size="12" lengthAdjust="spacingAndGlyphs" textLength="173" x="1627" y="893.5576">ServerMediaSubsessionIterator</text><line style="stroke: #A80036; stroke-width: 1.5;" x1="1599" x2="1802" y1="904" y2="904"/><line style="stroke: #A80036; stroke-width: 1.5;" x1="1599" x2="1802" y1="912" y2="912"/><!--class ServerMediaSubsession--><rect fill="#FEFECE" filter="url(#f170684gixik8o)" height="48" id="ServerMediaSubsession" style="stroke: #A80036; stroke-width: 1.5;" width="167" x="1552" y="656"/><ellipse cx="1567" cy="672" fill="#ADD1B2" rx="11" ry="11" style="stroke: #A80036; stroke-width: 1.0;"/><path d="M1565.5781,677.3594 Q1563.7188,677.3594 1562.625,675.9688 Q1561.5313,674.5781 1561.5313,671.5938 Q1561.5313,669.0625 1562.6953,667.4063 Q1563.8594,665.75 1565.8438,665.75 Q1567.3125,665.75 1567.7813,665.875 Q1568.25,666.0781 1568.25,666.0781 Q1568.25,666.0781 1568.25,666.0078 Q1568.25,665.9375 1568.8594,665.0156 L1569.9063,668.6719 L1568.5781,669.0781 Q1568.1094,667.5313 1567.4453,666.8672 Q1566.7813,666.2031 1565.7188,666.2031 Q1565.3281,666.2031 1564.5625,667.7344 Q1563.7969,669.2656 1563.7969,671.5156 Q1563.7969,673.9844 1564.4609,675.375 Q1565.125,676.7656 1565.6563,676.7656 Q1566.7188,676.7656 1567.4766,676 Q1568.2344,675.2344 1568.5781,673.5781 L1569.9063,674.1719 Q1569.5781,675.5781 1568.6797,676.4688 Q1567.7813,677.3594 1565.5781,677.3594 Z "/><text fill="#000000" font-family="sans-serif" font-size="12" lengthAdjust="spacingAndGlyphs" textLength="135" x="1581" y="677.5576">ServerMediaSubsession</text><line style="stroke: #A80036; stroke-width: 1.5;" x1="1553" x2="1718" y1="688" y2="688"/><line style="stroke: #A80036; stroke-width: 1.5;" x1="1553" x2="1718" y1="696" y2="696"/><!--class MediaSource--><rect fill="#FEFECE" filter="url(#f170684gixik8o)" height="48" id="MediaSource" style="stroke: #A80036; stroke-width: 1.5;" width="104" x="1143.5" y="764"/><ellipse cx="1158.5" cy="780" fill="#ADD1B2" rx="11" ry="11" style="stroke: #A80036; stroke-width: 1.0;"/><path d="M1157.0781,785.3594 Q1155.2188,785.3594 1154.125,783.9688 Q1153.0313,782.5781 1153.0313,779.5938 Q1153.0313,777.0625 1154.1953,775.4063 Q1155.3594,773.75 1157.3438,773.75 Q1158.8125,773.75 1159.2813,773.875 Q1159.75,774.0781 1159.75,774.0781 Q1159.75,774.0781 1159.75,774.0078 Q1159.75,773.9375 1160.3594,773.0156 L1161.4063,776.6719 L1160.0781,777.0781 Q1159.6094,775.5313 1158.9453,774.8672 Q1158.2813,774.2031 1157.2188,774.2031 Q1156.8281,774.2031 1156.0625,775.7344 Q1155.2969,777.2656 1155.2969,779.5156 Q1155.2969,781.9844 1155.9609,783.375 Q1156.625,784.7656 1157.1563,784.7656 Q1158.2188,784.7656 1158.9766,784 Q1159.7344,783.2344 1160.0781,781.5781 L1161.4063,782.1719 Q1161.0781,783.5781 1160.1797,784.4688 Q1159.2813,785.3594 1157.0781,785.3594 Z "/><text fill="#000000" font-family="sans-serif" font-size="12" lengthAdjust="spacingAndGlyphs" textLength="72" x="1172.5" y="785.5576">MediaSource</text><line style="stroke: #A80036; stroke-width: 1.5;" x1="1144.5" x2="1246.5" y1="796" y2="796"/><line style="stroke: #A80036; stroke-width: 1.5;" x1="1144.5" x2="1246.5" y1="804" y2="804"/><!--class FramedSource--><rect fill="#FEFECE" filter="url(#f170684gixik8o)" height="48" id="FramedSource" style="stroke: #A80036; stroke-width: 1.5;" width="114" x="1136.5" y="656"/><ellipse cx="1151.5" cy="672" fill="#ADD1B2" rx="11" ry="11" style="stroke: #A80036; stroke-width: 1.0;"/><path d="M1150.0781,677.3594 Q1148.2188,677.3594 1147.125,675.9688 Q1146.0313,674.5781 1146.0313,671.5938 Q1146.0313,669.0625 1147.1953,667.4063 Q1148.3594,665.75 1150.3438,665.75 Q1151.8125,665.75 1152.2813,665.875 Q1152.75,666.0781 1152.75,666.0781 Q1152.75,666.0781 1152.75,666.0078 Q1152.75,665.9375 1153.3594,665.0156 L1154.4063,668.6719 L1153.0781,669.0781 Q1152.6094,667.5313 1151.9453,666.8672 Q1151.2813,666.2031 1150.2188,666.2031 Q1149.8281,666.2031 1149.0625,667.7344 Q1148.2969,669.2656 1148.2969,671.5156 Q1148.2969,673.9844 1148.9609,675.375 Q1149.625,676.7656 1150.1563,676.7656 Q1151.2188,676.7656 1151.9766,676 Q1152.7344,675.2344 1153.0781,673.5781 L1154.4063,674.1719 Q1154.0781,675.5781 1153.1797,676.4688 Q1152.2813,677.3594 1150.0781,677.3594 Z "/><text fill="#000000" font-family="sans-serif" font-size="12" lengthAdjust="spacingAndGlyphs" textLength="82" x="1165.5" y="677.5576">FramedSource</text><line style="stroke: #A80036; stroke-width: 1.5;" x1="1137.5" x2="1249.5" y1="688" y2="688"/><line style="stroke: #A80036; stroke-width: 1.5;" x1="1137.5" x2="1249.5" y1="696" y2="696"/><!--class FramedFilter--><rect fill="#FEFECE" filter="url(#f170684gixik8o)" height="48" id="FramedFilter" style="stroke: #A80036; stroke-width: 1.5;" width="102" x="1108.5" y="548"/><ellipse cx="1123.5" cy="564" fill="#ADD1B2" rx="11" ry="11" style="stroke: #A80036; stroke-width: 1.0;"/><path d="M1122.0781,569.3594 Q1120.2188,569.3594 1119.125,567.9688 Q1118.0313,566.5781 1118.0313,563.5938 Q1118.0313,561.0625 1119.1953,559.4063 Q1120.3594,557.75 1122.3438,557.75 Q1123.8125,557.75 1124.2813,557.875 Q1124.75,558.0781 1124.75,558.0781 Q1124.75,558.0781 1124.75,558.0078 Q1124.75,557.9375 1125.3594,557.0156 L1126.4063,560.6719 L1125.0781,561.0781 Q1124.6094,559.5313 1123.9453,558.8672 Q1123.2813,558.2031 1122.2188,558.2031 Q1121.8281,558.2031 1121.0625,559.7344 Q1120.2969,561.2656 1120.2969,563.5156 Q1120.2969,565.9844 1120.9609,567.375 Q1121.625,568.7656 1122.1563,568.7656 Q1123.2188,568.7656 1123.9766,568 Q1124.7344,567.2344 1125.0781,565.5781 L1126.4063,566.1719 Q1126.0781,567.5781 1125.1797,568.4688 Q1124.2813,569.3594 1122.0781,569.3594 Z "/><text fill="#000000" font-family="sans-serif" font-size="12" lengthAdjust="spacingAndGlyphs" textLength="70" x="1137.5" y="569.5576">FramedFilter</text><line style="stroke: #A80036; stroke-width: 1.5;" x1="1109.5" x2="1209.5" y1="580" y2="580"/><line style="stroke: #A80036; stroke-width: 1.5;" x1="1109.5" x2="1209.5" y1="588" y2="588"/><!--class PresentationTimeSubsessionNormalizer--><rect fill="#FEFECE" filter="url(#f170684gixik8o)" height="48" id="PresentationTimeSubsessionNormalizer" style="stroke: #A80036; stroke-width: 1.5;" width="257" x="1235" y="440"/><ellipse cx="1250" cy="456" fill="#ADD1B2" rx="11" ry="11" style="stroke: #A80036; stroke-width: 1.0;"/><path d="M1248.5781,461.3594 Q1246.7188,461.3594 1245.625,459.9688 Q1244.5313,458.5781 1244.5313,455.5938 Q1244.5313,453.0625 1245.6953,451.4063 Q1246.8594,449.75 1248.8438,449.75 Q1250.3125,449.75 1250.7813,449.875 Q1251.25,450.0781 1251.25,450.0781 Q1251.25,450.0781 1251.25,450.0078 Q1251.25,449.9375 1251.8594,449.0156 L1252.9063,452.6719 L1251.5781,453.0781 Q1251.1094,451.5313 1250.4453,450.8672 Q1249.7813,450.2031 1248.7188,450.2031 Q1248.3281,450.2031 1247.5625,451.7344 Q1246.7969,453.2656 1246.7969,455.5156 Q1246.7969,457.9844 1247.4609,459.375 Q1248.125,460.7656 1248.6563,460.7656 Q1249.7188,460.7656 1250.4766,460 Q1251.2344,459.2344 1251.5781,457.5781 L1252.9063,458.1719 Q1252.5781,459.5781 1251.6797,460.4688 Q1250.7813,461.3594 1248.5781,461.3594 Z "/><text fill="#000000" font-family="sans-serif" font-size="12" lengthAdjust="spacingAndGlyphs" textLength="225" x="1264" y="461.5576">PresentationTimeSubsessionNormalizer</text><line style="stroke: #A80036; stroke-width: 1.5;" x1="1236" x2="1491" y1="472" y2="472"/><line style="stroke: #A80036; stroke-width: 1.5;" x1="1236" x2="1491" y1="480" y2="480"/><!--class PresentationTimeSessionNormalizer--><rect fill="#FEFECE" filter="url(#f170684gixik8o)" height="48" id="PresentationTimeSessionNormalizer" style="stroke: #A80036; stroke-width: 1.5;" width="236" x="1245.5" y="548"/><ellipse cx="1260.5" cy="564" fill="#ADD1B2" rx="11" ry="11" style="stroke: #A80036; stroke-width: 1.0;"/><path d="M1259.0781,569.3594 Q1257.2188,569.3594 1256.125,567.9688 Q1255.0313,566.5781 1255.0313,563.5938 Q1255.0313,561.0625 1256.1953,559.4063 Q1257.3594,557.75 1259.3438,557.75 Q1260.8125,557.75 1261.2813,557.875 Q1261.75,558.0781 1261.75,558.0781 Q1261.75,558.0781 1261.75,558.0078 Q1261.75,557.9375 1262.3594,557.0156 L1263.4063,560.6719 L1262.0781,561.0781 Q1261.6094,559.5313 1260.9453,558.8672 Q1260.2813,558.2031 1259.2188,558.2031 Q1258.8281,558.2031 1258.0625,559.7344 Q1257.2969,561.2656 1257.2969,563.5156 Q1257.2969,565.9844 1257.9609,567.375 Q1258.625,568.7656 1259.1563,568.7656 Q1260.2188,568.7656 1260.9766,568 Q1261.7344,567.2344 1262.0781,565.5781 L1263.4063,566.1719 Q1263.0781,567.5781 1262.1797,568.4688 Q1261.2813,569.3594 1259.0781,569.3594 Z "/><text fill="#000000" font-family="sans-serif" font-size="12" lengthAdjust="spacingAndGlyphs" textLength="204" x="1274.5" y="569.5576">PresentationTimeSessionNormalizer</text><line style="stroke: #A80036; stroke-width: 1.5;" x1="1246.5" x2="1480.5" y1="580" y2="580"/><line style="stroke: #A80036; stroke-width: 1.5;" x1="1246.5" x2="1480.5" y1="588" y2="588"/><!--class OnDemandServerMediaSubsession--><rect fill="#FEFECE" filter="url(#f170684gixik8o)" height="48" id="OnDemandServerMediaSubsession" style="stroke: #A80036; stroke-width: 1.5;" width="231" x="1517" y="548"/><ellipse cx="1532" cy="564" fill="#ADD1B2" rx="11" ry="11" style="stroke: #A80036; stroke-width: 1.0;"/><path d="M1530.5781,569.3594 Q1528.7188,569.3594 1527.625,567.9688 Q1526.5313,566.5781 1526.5313,563.5938 Q1526.5313,561.0625 1527.6953,559.4063 Q1528.8594,557.75 1530.8438,557.75 Q1532.3125,557.75 1532.7813,557.875 Q1533.25,558.0781 1533.25,558.0781 Q1533.25,558.0781 1533.25,558.0078 Q1533.25,557.9375 1533.8594,557.0156 L1534.9063,560.6719 L1533.5781,561.0781 Q1533.1094,559.5313 1532.4453,558.8672 Q1531.7813,558.2031 1530.7188,558.2031 Q1530.3281,558.2031 1529.5625,559.7344 Q1528.7969,561.2656 1528.7969,563.5156 Q1528.7969,565.9844 1529.4609,567.375 Q1530.125,568.7656 1530.6563,568.7656 Q1531.7188,568.7656 1532.4766,568 Q1533.2344,567.2344 1533.5781,565.5781 L1534.9063,566.1719 Q1534.5781,567.5781 1533.6797,568.4688 Q1532.7813,569.3594 1530.5781,569.3594 Z "/><text fill="#000000" font-family="sans-serif" font-size="12" lengthAdjust="spacingAndGlyphs" textLength="199" x="1546" y="569.5576">OnDemandServerMediaSubsession</text><line style="stroke: #A80036; stroke-width: 1.5;" x1="1518" x2="1747" y1="580" y2="580"/><line style="stroke: #A80036; stroke-width: 1.5;" x1="1518" x2="1747" y1="588" y2="588"/><!--class StreamState--><rect fill="#FEFECE" filter="url(#f170684gixik8o)" height="48" id="StreamState" style="stroke: #A80036; stroke-width: 1.5;" width="100" x="1387.5" y="656"/><ellipse cx="1402.5" cy="672" fill="#ADD1B2" rx="11" ry="11" style="stroke: #A80036; stroke-width: 1.0;"/><path d="M1401.0781,677.3594 Q1399.2188,677.3594 1398.125,675.9688 Q1397.0313,674.5781 1397.0313,671.5938 Q1397.0313,669.0625 1398.1953,667.4063 Q1399.3594,665.75 1401.3438,665.75 Q1402.8125,665.75 1403.2813,665.875 Q1403.75,666.0781 1403.75,666.0781 Q1403.75,666.0781 1403.75,666.0078 Q1403.75,665.9375 1404.3594,665.0156 L1405.4063,668.6719 L1404.0781,669.0781 Q1403.6094,667.5313 1402.9453,666.8672 Q1402.2813,666.2031 1401.2188,666.2031 Q1400.8281,666.2031 1400.0625,667.7344 Q1399.2969,669.2656 1399.2969,671.5156 Q1399.2969,673.9844 1399.9609,675.375 Q1400.625,676.7656 1401.1563,676.7656 Q1402.2188,676.7656 1402.9766,676 Q1403.7344,675.2344 1404.0781,673.5781 L1405.4063,674.1719 Q1405.0781,675.5781 1404.1797,676.4688 Q1403.2813,677.3594 1401.0781,677.3594 Z "/><text fill="#000000" font-family="sans-serif" font-size="12" lengthAdjust="spacingAndGlyphs" textLength="68" x="1416.5" y="677.5576">StreamState</text><line style="stroke: #A80036; stroke-width: 1.5;" x1="1388.5" x2="1486.5" y1="688" y2="688"/><line style="stroke: #A80036; stroke-width: 1.5;" x1="1388.5" x2="1486.5" y1="696" y2="696"/><!--class Destinations--><rect fill="#FEFECE" filter="url(#f170684gixik8o)" height="48" id="Destinations" style="stroke: #A80036; stroke-width: 1.5;" width="102" x="1356.5" y="764"/><ellipse cx="1371.5" cy="780" fill="#ADD1B2" rx="11" ry="11" style="stroke: #A80036; stroke-width: 1.0;"/><path d="M1370.0781,785.3594 Q1368.2188,785.3594 1367.125,783.9688 Q1366.0313,782.5781 1366.0313,779.5938 Q1366.0313,777.0625 1367.1953,775.4063 Q1368.3594,773.75 1370.3438,773.75 Q1371.8125,773.75 1372.2813,773.875 Q1372.75,774.0781 1372.75,774.0781 Q1372.75,774.0781 1372.75,774.0078 Q1372.75,773.9375 1373.3594,773.0156 L1374.4063,776.6719 L1373.0781,777.0781 Q1372.6094,775.5313 1371.9453,774.8672 Q1371.2813,774.2031 1370.2188,774.2031 Q1369.8281,774.2031 1369.0625,775.7344 Q1368.2969,777.2656 1368.2969,779.5156 Q1368.2969,781.9844 1368.9609,783.375 Q1369.625,784.7656 1370.1563,784.7656 Q1371.2188,784.7656 1371.9766,784 Q1372.7344,783.2344 1373.0781,781.5781 L1374.4063,782.1719 Q1374.0781,783.5781 1373.1797,784.4688 Q1372.2813,785.3594 1370.0781,785.3594 Z "/><text fill="#000000" font-family="sans-serif" font-size="12" lengthAdjust="spacingAndGlyphs" textLength="70" x="1385.5" y="785.5576">Destinations</text><line style="stroke: #A80036; stroke-width: 1.5;" x1="1357.5" x2="1457.5" y1="796" y2="796"/><line style="stroke: #A80036; stroke-width: 1.5;" x1="1357.5" x2="1457.5" y1="804" y2="804"/><!--link GenericMediaServer to Medium--><path d="M1038.09,812 C1083.89,829.9812 1147.18,854.8307 1192.56,872.6444 " fill="none" id="GenericMediaServer-Medium" style="stroke: #A80036; stroke-width: 1.0; stroke-dasharray: 7.0,7.0;"/><polygon fill="none" points="1195.35,866.2208,1211.41,880.0455,1190.23,879.2525,1195.35,866.2208" style="stroke: #A80036; stroke-width: 1.0;"/><!--link ClientConnection to GenericMediaServer--><path d="M1005.735,716.869 C999.137,727.495 992.729,739.151 987.595,749.856 " fill="none" id="ClientConnection-GenericMediaServer" style="stroke: #A80036; stroke-width: 1.0;"/><ellipse cx="984.7212" cy="756.3609" fill="#FFFFFF" rx="8" ry="8" style="stroke: #A80036; stroke-width: 1.0;"/><line style="stroke: #A80036; stroke-width: 1.0;" x1="987.9554" x2="981.487" y1="749.0438" y2="763.678"/><line style="stroke: #A80036; stroke-width: 1.0;" x1="992.0383" x2="977.4041" y1="759.5951" y2="753.1267"/><polygon fill="#A80036" points="1014.19,704,1005.9052,709.3256,1011.4446,708.1788,1012.5913,713.7182,1014.19,704" style="stroke: #A80036; stroke-width: 1.0;"/><line style="stroke: #A80036; stroke-width: 1.0;" x1="1011.4446" x2="1005.9525" y1="708.1788" y2="716.5375"/><!--link ClientConnection to GenericMediaServer--><path d="M1036.27,704 C1029.98,720.279 1018.21,742.187 1006.61,759.408 " fill="none" id="ClientConnection-GenericMediaServer" style="stroke: #A80036; stroke-width: 1.0;"/><polygon fill="#A80036" points="1003.669,763.678,1012.067,758.5328,1006.5041,759.5595,1005.4774,753.9966,1003.669,763.678" style="stroke: #A80036; stroke-width: 1.0;"/><!--link ClientSession to GenericMediaServer--><path d="M850.383,712.516 C870.76,726.292 896.158,742.4 919.119,756.106 " fill="none" id="ClientSession-GenericMediaServer" style="stroke: #A80036; stroke-width: 1.0;"/><ellipse cx="925.4042" cy="759.8047" fill="#FFFFFF" rx="8" ry="8" style="stroke: #A80036; stroke-width: 1.0;"/><line style="stroke: #A80036; stroke-width: 1.0;" x1="918.5094" x2="932.299" y1="755.7473" y2="763.862"/><line style="stroke: #A80036; stroke-width: 1.0;" x1="929.4615" x2="921.3469" y1="752.9099" y2="766.6995"/><polygon fill="#A80036" points="838.011,704,843.1568,712.3977,842.1297,706.8348,847.6925,705.8078,838.011,704" style="stroke: #A80036; stroke-width: 1.0;"/><line style="stroke: #A80036; stroke-width: 1.0;" x1="842.1297" x2="850.3665" y1="706.8348" y2="712.5045"/><!--link ClientSession to GenericMediaServer--><path d="M860.093,704 C889.177,720.75 925.11,743.461 950.186,760.892 " fill="none" id="ClientSession-GenericMediaServer" style="stroke: #A80036; stroke-width: 1.0;"/><polygon fill="#A80036" points="954.425,763.862,949.3493,755.4218,950.33,760.993,944.7589,761.9737,954.425,763.862" style="stroke: #A80036; stroke-width: 1.0;"/><!--link RTSPServer to GenericMediaServer--><path d="M827.057,488.066 C845.67,503.392 868.81,524.892 884.5,548 C926.763,610.244 954.547,694.09 968.603,744.137 " fill="none" id="RTSPServer-GenericMediaServer" style="stroke: #A80036; stroke-width: 1.0;"/><polygon fill="none" points="975.418,742.522,973.867,763.654,961.901,746.167,975.418,742.522" style="stroke: #A80036; stroke-width: 1.0;"/><!--link RTSPServer to RTSPClientConnection--><path d="M842.34,439.862 C876.001,422.871 921.702,399.803 956.337,382.32 " fill="none" id="RTSPServer-RTSPClientConnection" style="stroke: #A80036; stroke-width: 1.0;"/><polygon fill="#A80036" points="960.933,380,951.096,380.4837,956.4692,382.2526,954.7002,387.6258,960.933,380" style="stroke: #A80036; stroke-width: 1.0;"/><!--link RTSPServer to RTSPClientConnection--><path d="M860.137,441.738 C896.069,426.273 938.871,405.1 969.589,387.788 " fill="none" id="RTSPServer-RTSPClientConnection" style="stroke: #A80036; stroke-width: 1.0;"/><polygon fill="#A80036" points="983.016,380,973.2238,381.0552,978.6908,382.5085,977.2375,387.9755,983.016,380" style="stroke: #A80036; stroke-width: 1.0;"/><line style="stroke: #A80036; stroke-width: 1.0;" x1="978.6908" x2="970.04" y1="382.5085" y2="387.5255"/><ellipse cx="853.6118" cy="444.4774" fill="#FFFFFF" rx="8" ry="8" style="stroke: #A80036; stroke-width: 1.0;"/><line style="stroke: #A80036; stroke-width: 1.0;" x1="860.9886" x2="846.235" y1="441.3817" y2="447.573"/><line style="stroke: #A80036; stroke-width: 1.0;" x1="856.7074" x2="850.5162" y1="451.8542" y2="437.1006"/><!--link RTSPClientConnection to RTSPServer--><path d="M938.85,380 C900.269,396.819 854.762,419.649 824.874,437.107 " fill="none" id="RTSPClientConnection-RTSPServer" style="stroke: #A80036; stroke-width: 1.0;"/><polygon fill="#A80036" points="820.214,439.862,829.9971,438.7257,824.5183,437.3177,825.9263,431.8389,820.214,439.862" style="stroke: #A80036; stroke-width: 1.0;"/><!--link RTSPServer to RTSPClientSession--><path d="M774.417,488 C769.412,504.003 768.916,525.446 772.928,542.528 " fill="none" id="RTSPServer-RTSPClientSession" style="stroke: #A80036; stroke-width: 1.0;"/><polygon fill="#A80036" points="774.318,547.678,775.8346,537.9466,773.0151,542.8507,768.111,540.0312,774.318,547.678" style="stroke: #A80036; stroke-width: 1.0;"/><!--link RTSPServer to RTSPClientSession--><path d="M796.5,503.227 C796.5,512.753 796.5,522.971 796.5,532.509 " fill="none" id="RTSPServer-RTSPClientSession" style="stroke: #A80036; stroke-width: 1.0;"/><polygon fill="#A80036" points="796.5,547.678,800.5,538.678,796.5,542.678,792.5,538.678,796.5,547.678" style="stroke: #A80036; stroke-width: 1.0;"/><line style="stroke: #A80036; stroke-width: 1.0;" x1="796.5" x2="796.5" y1="542.678" y2="532.678"/><ellipse cx="796.5" cy="496" fill="#FFFFFF" rx="8" ry="8" style="stroke: #A80036; stroke-width: 1.0;"/><line style="stroke: #A80036; stroke-width: 1.0;" x1="796.5" x2="796.5" y1="504" y2="488"/><line style="stroke: #A80036; stroke-width: 1.0;" x1="788.5" x2="804.5" y1="496" y2="496"/><!--link RTSPClientSession to RTSPServer--><path d="M818.682,547.678 C823.627,531.604 824.064,510.154 819.991,493.131 " fill="none" id="RTSPClientSession-RTSPServer" style="stroke: #A80036; stroke-width: 1.0;"/><polygon fill="#A80036" points="818.583,488,817.1069,497.7376,819.906,492.8218,824.8218,495.6209,818.583,488" style="stroke: #A80036; stroke-width: 1.0;"/><!--link RTSPServer to ServerMediaSessionIterator--><path d="M746.986,485.942 C712.312,502.964 667.076,527.053 635.479,545.252 " fill="none" id="RTSPServer-ServerMediaSessionIterator" style="stroke: #A80036; stroke-width: 1.0;"/><polygon fill="#A80036" points="630.919,547.893,640.7119,546.8445,635.2459,545.3874,636.703,539.9214,630.919,547.893" style="stroke: #A80036; stroke-width: 1.0;"/><!--link RTSPServer to ServerMediaSessionIterator--><path d="M751.693,495.608 C726.494,509.922 694.742,526.906 666.588,541.126 " fill="none" id="RTSPServer-ServerMediaSessionIterator" style="stroke: #A80036; stroke-width: 1.0;"/><polygon fill="#A80036" points="653.1,547.862,662.9389,547.4198,657.5733,545.6282,659.3649,540.2626,653.1,547.862" style="stroke: #A80036; stroke-width: 1.0;"/><line style="stroke: #A80036; stroke-width: 1.0;" x1="657.5733" x2="666.5195" y1="545.6282" y2="541.16"/><ellipse cx="757.9626" cy="491.9944" fill="#FFFFFF" rx="8" ry="8" style="stroke: #A80036; stroke-width: 1.0;"/><line style="stroke: #A80036; stroke-width: 1.0;" x1="751.0312" x2="764.894" y1="495.9889" y2="488"/><line style="stroke: #A80036; stroke-width: 1.0;" x1="753.9682" x2="761.957" y1="485.063" y2="498.9258"/><!--link RTSPServer to RegisterRequestRecord--><path d="M746.879,477.892 C679.832,495.311 559.206,526.65 476.57,548.119 " fill="none" id="RTSPServer-RegisterRequestRecord" style="stroke: #A80036; stroke-width: 1.0;"/><polygon fill="#A80036" points="471.678,549.39,481.3947,550.9983,476.5173,548.1327,479.3829,543.2553,471.678,549.39" style="stroke: #A80036; stroke-width: 1.0;"/><!--link RegisterRequestRecord to RTSPRegisterSender--><path d="M330.999,596 C292.672,611.331 241.86,631.656 200.112,648.355 " fill="none" id="RegisterRequestRecord-RTSPRegisterSender" style="stroke: #A80036; stroke-width: 1.0;"/><polygon fill="none" points="202.515,654.933,181.346,655.862,197.316,641.934,202.515,654.933" style="stroke: #A80036; stroke-width: 1.0;"/><!--link RTSPRegisterSender to RTSPClient--><path d="M156.699,704 C177.079,718.12 203.573,736.475 226.462,752.333 " fill="none" id="RTSPRegisterSender-RTSPClient" style="stroke: #A80036; stroke-width: 1.0;"/><polygon fill="none" points="230.649,746.718,243.102,763.862,222.676,758.226,230.649,746.718" style="stroke: #A80036; stroke-width: 1.0;"/><!--link RTSPRegisterSender to RequestRecord_REGISTER--><path d="M114.952,718.753 C112.725,728.591 110.324,739.195 108.094,749.043 " fill="none" id="RTSPRegisterSender-RequestRecord_REGISTER" style="stroke: #A80036; stroke-width: 1.0;"/><polygon fill="#A80036" points="104.7804,763.678,110.6694,755.7837,105.8847,758.8015,102.8669,754.0168,104.7804,763.678" style="stroke: #A80036; stroke-width: 1.0;"/><line style="stroke: #A80036; stroke-width: 1.0;" x1="105.8847" x2="108.0927" y1="758.8015" y2="749.0485"/><ellipse cx="116.5259" cy="711.8026" fill="#FFFFFF" rx="8" ry="8" style="stroke: #A80036; stroke-width: 1.0;"/><line style="stroke: #A80036; stroke-width: 1.0;" x1="114.7598" x2="118.292" y1="719.6052" y2="704"/><line style="stroke: #A80036; stroke-width: 1.0;" x1="108.7233" x2="124.3285" y1="710.0365" y2="713.5687"/><!--link RequestRecord_REGISTER to RequestRecord--><path d="M102.1038,812 C103.4157,823.5885 105.0505,838.0294 106.587,851.6013 " fill="none" id="RequestRecord_REGISTER-RequestRecord" style="stroke: #A80036; stroke-width: 1.0;"/><polygon fill="none" points="113.566,851.0179,108.86,871.6784,99.6544,852.5928,113.566,851.0179" style="stroke: #A80036; stroke-width: 1.0;"/><!--link RTSPServerWithREGISTERProxying to RTSPServer--><path d="M502.086,380 C569.325,398.956 663.641,425.545 727.249,443.477 " fill="none" id="RTSPServerWithREGISTERProxying-RTSPServer" style="stroke: #A80036; stroke-width: 1.0;"/><polygon fill="none" points="729.399,436.81,746.749,448.974,725.6,450.285,729.399,436.81" style="stroke: #A80036; stroke-width: 1.0;"/><!--link RTSPClientConnection to ClientConnection--><path d="M1008.73,380.157 C1014.28,437.804 1028.7,587.613 1034.76,650.524 " fill="none" id="RTSPClientConnection-ClientConnection" style="stroke: #A80036; stroke-width: 1.0;"/><polygon fill="#A80036" points="1035.25,655.62,1038.3692,646.2781,1034.7709,650.643,1030.406,647.0447,1035.25,655.62" style="stroke: #A80036; stroke-width: 1.0;"/><!--link RTSPClientConnection to ParamsForREGISTER--><path d="M1031.72,391.007 C1044.27,403.419 1059.63,417.432 1074.21,429.775 " fill="none" id="RTSPClientConnection-ParamsForREGISTER" style="stroke: #A80036; stroke-width: 1.0;"/><polygon fill="#A80036" points="1086.2,439.678,1081.8042,430.8645,1082.3435,436.4956,1076.7124,437.0349,1086.2,439.678" style="stroke: #A80036; stroke-width: 1.0;"/><line style="stroke: #A80036; stroke-width: 1.0;" x1="1082.3435" x2="1074.64" y1="436.4956" y2="430.1255"/><ellipse cx="1026.5383" cy="385.7148" fill="#FFFFFF" rx="8" ry="8" style="stroke: #A80036; stroke-width: 1.0;"/><line style="stroke: #A80036; stroke-width: 1.0;" x1="1032.1365" x2="1020.94" y1="391.4297" y2="380"/><line style="stroke: #A80036; stroke-width: 1.0;" x1="1020.8234" x2="1032.2531" y1="391.3131" y2="380.1166"/><!--link ParamsForREGISTER to RTSPClientConnection--><path d="M1108.39,439.678 C1092.75,422.98 1068.27,400.482 1046.97,383.17 " fill="none" id="ParamsForREGISTER-RTSPClientConnection" style="stroke: #A80036; stroke-width: 1.0;"/><polygon fill="#A80036" points="1043.03,380,1047.5411,388.755,1046.9279,383.1315,1052.5514,382.5183,1043.03,380" style="stroke: #A80036; stroke-width: 1.0;"/><!--link RTSPClientSession to ClientSession--><path d="M799.972,596 C802.387,612.003 805.624,633.446 808.202,650.528 " fill="none" id="RTSPClientSession-ClientSession" style="stroke: #A80036; stroke-width: 1.0;"/><polygon fill="#A80036" points="808.98,655.678,811.5904,646.1814,808.2329,650.7341,803.6802,647.3767,808.98,655.678" style="stroke: #A80036; stroke-width: 1.0;"/><!--link RTSPClientSession to streamState--><path d="M758.066,605.855 C743.17,618.589 726.141,633.146 711.218,645.903 " fill="none" id="RTSPClientSession-streamState" style="stroke: #A80036; stroke-width: 1.0;"/><polygon fill="#A80036" points="699.782,655.678,709.2221,652.8701,703.5825,652.4289,704.0236,646.7893,699.782,655.678" style="stroke: #A80036; stroke-width: 1.0;"/><line style="stroke: #A80036; stroke-width: 1.0;" x1="703.5825" x2="711.1835" y1="652.4289" y2="645.9315"/><ellipse cx="763.5129" cy="601.198" fill="#FFFFFF" rx="8" ry="8" style="stroke: #A80036; stroke-width: 1.0;"/><line style="stroke: #A80036; stroke-width: 1.0;" x1="757.4317" x2="769.594" y1="606.3961" y2="596"/><line style="stroke: #A80036; stroke-width: 1.0;" x1="758.3148" x2="768.7109" y1="595.1169" y2="607.2792"/><!--link RTSPServerSupportingHTTPStreaming to RTSPServer--><path d="M955.204,164.159 C941.133,180.193 922.885,202.448 909.5,224 C869.212,288.869 870.413,311.095 837.5,380 C830.984,393.641 823.721,408.464 817.14,421.757 " fill="none" id="RTSPServerSupportingHTTPStreaming-RTSPServer" style="stroke: #A80036; stroke-width: 1.0;"/><polygon fill="none" points="823.327,425.036,808.152,439.825,810.793,418.801,823.327,425.036" style="stroke: #A80036; stroke-width: 1.0;"/><!--link RTSPServerSupportingHTTPStreaming to RTSPClientConnectionSupportingHTTPStreaming--><path d="M1009.87,175.007 C1021.68,187.046 1034.97,200.593 1046.81,212.66 " fill="none" id="RTSPServerSupportingHTTPStreaming-RTSPClientConnectionSupportingHTTPStreaming" style="stroke: #A80036; stroke-width: 1.0;"/><polygon fill="#A80036" points="1057.62,223.678,1054.1688,214.4536,1054.117,220.1102,1048.4604,220.0584,1057.62,223.678" style="stroke: #A80036; stroke-width: 1.0;"/><line style="stroke: #A80036; stroke-width: 1.0;" x1="1054.117" x2="1047.115" y1="220.1102" y2="212.971"/><ellipse cx="1004.6681" cy="169.7111" fill="#FFFFFF" rx="8" ry="8" style="stroke: #A80036; stroke-width: 1.0;"/><line style="stroke: #A80036; stroke-width: 1.0;" x1="1010.2702" x2="999.066" y1="175.4221" y2="164"/><line style="stroke: #A80036; stroke-width: 1.0;" x1="998.9571" x2="1010.3792" y1="175.3132" y2="164.1089"/><!--link RTSPClientConnectionSupportingHTTPStreaming to RTSPClientConnection--><path d="M1064.44,272 C1055.68,284.554 1044.58,300.456 1034.44,314.974 " fill="none" id="RTSPClientConnectionSupportingHTTPStreaming-RTSPClientConnection" style="stroke: #A80036; stroke-width: 1.0;"/><polygon fill="none" points="1039.97,319.286,1022.78,331.678,1028.49,311.272,1039.97,319.286" style="stroke: #A80036; stroke-width: 1.0;"/><!--link DynamicRTSPServer to RTSPServerSupportingHTTPStreaming--><path d="M976.5,56 C976.5,67.588 976.5,82.029 976.5,95.601 " fill="none" id="DynamicRTSPServer-RTSPServerSupportingHTTPStreaming" style="stroke: #A80036; stroke-width: 1.0;"/><polygon fill="none" points="983.5,95.678,976.5,115.678,969.5,95.678,983.5,95.678" style="stroke: #A80036; stroke-width: 1.0;"/><!--link RTSPClient to Medium--><path d="M324.751,794.257 C487.353,811.971 1014.92,869.4445 1191.39,888.6698 " fill="none" id="RTSPClient-Medium" style="stroke: #A80036; stroke-width: 1.0;"/><polygon fill="none" points="1192.23,881.7199,1211.36,890.8448,1190.72,895.6375,1192.23,881.7199" style="stroke: #A80036; stroke-width: 1.0;"/><!--link RTSPClient to RequestQueue--><path d="M276.5,827.227 C276.5,836.7529 276.5,846.9707 276.5,856.5092 " fill="none" id="RTSPClient-RequestQueue" style="stroke: #A80036; stroke-width: 1.0;"/><polygon fill="#A80036" points="276.5,871.6784,280.5,862.6784,276.5,866.6784,272.5,862.6784,276.5,871.6784" style="stroke: #A80036; stroke-width: 1.0;"/><line style="stroke: #A80036; stroke-width: 1.0;" x1="276.5" x2="276.5" y1="866.6784" y2="856.6785"/><ellipse cx="276.5001" cy="820" fill="#FFFFFF" rx="8" ry="8" style="stroke: #A80036; stroke-width: 1.0;"/><line style="stroke: #A80036; stroke-width: 1.0;" x1="276.5002" x2="276.5" y1="828" y2="812"/><line style="stroke: #A80036; stroke-width: 1.0;" x1="268.5001" x2="284.5001" y1="820.0001" y2="819.9999"/><!--link RTSPClient to RequestRecord--><path d="M227.797,820.2882 C206.494,833.9733 181.558,849.9932 160.25,863.6817 " fill="none" id="RTSPClient-RequestRecord" style="stroke: #A80036; stroke-width: 1.0;"/><polygon fill="#A80036" points="147.517,871.8617,157.2511,870.3628,151.7238,869.1593,152.9273,863.6319,147.517,871.8617" style="stroke: #A80036; stroke-width: 1.0;"/><line style="stroke: #A80036; stroke-width: 1.0;" x1="151.7238" x2="160.1375" y1="869.1593" y2="863.7542"/><ellipse cx="233.9662" cy="816.3239" fill="#FFFFFF" rx="8" ry="8" style="stroke: #A80036; stroke-width: 1.0;"/><line style="stroke: #A80036; stroke-width: 1.0;" x1="227.2354" x2="240.697" y1="820.6478" y2="812"/><line style="stroke: #A80036; stroke-width: 1.0;" x1="229.6423" x2="238.2901" y1="809.5931" y2="823.0547"/><!--link HandlerServerForREGISTERCommand to RTSPServer--><path d="M717.415,380 C729.903,393.106 745.867,409.86 760.178,424.88 " fill="none" id="HandlerServerForREGISTERCommand-RTSPServer" style="stroke: #A80036; stroke-width: 1.0;"/><polygon fill="none" points="765.55,420.37,774.278,439.678,755.414,430.028,765.55,420.37" style="stroke: #A80036; stroke-width: 1.0;"/><!--link ProxyRTSPClient to RTSPClient--><path d="M1569.96,252.799 C1305.07,268.895 289.075,330.712 287.5,332 C240.856,370.159 252.5,402.736 252.5,463 C252.5,463 252.5,463 252.5,573 C252.5,632.67 261.829,701.12 268.854,744.207 " fill="none" id="ProxyRTSPClient-RTSPClient" style="stroke: #A80036; stroke-width: 1.0;"/><polygon fill="none" points="275.765,743.088,272.209,763.978,261.962,745.431,275.765,743.088" style="stroke: #A80036; stroke-width: 1.0;"/><!--link ProxyRTSPClient to ProxyServerMediaSession--><path d="M1656.06,272 C1678.57,288.819 1712.46,311.649 1740.77,329.107 " fill="none" id="ProxyRTSPClient-ProxyServerMediaSession" style="stroke: #A80036; stroke-width: 1.0;"/><polygon fill="#A80036" points="1745.26,331.862,1739.679,323.747,1740.9977,329.2481,1735.4967,330.5667,1745.26,331.862" style="stroke: #A80036; stroke-width: 1.0;"/><!--link ProxyServerMediaSession to ProxyRTSPClient--><path d="M1767.15,331.678 C1744.71,314.842 1710.95,292.108 1682.63,274.74 " fill="none" id="ProxyServerMediaSession-ProxyRTSPClient" style="stroke: #A80036; stroke-width: 1.0;"/><polygon fill="#A80036" points="1678.14,272,1683.7456,280.098,1682.4102,274.601,1687.9072,273.2656,1678.14,272" style="stroke: #A80036; stroke-width: 1.0;"/><!--link ProxyRTSPClient to ProxyServerMediaSubsession--><path d="M1624.19,272.309 C1618.5,311.866 1618.28,391.994 1623.52,434.702 " fill="none" id="ProxyRTSPClient-ProxyServerMediaSubsession" style="stroke: #A80036; stroke-width: 1.0;"/><polygon fill="#A80036" points="1624.19,439.72,1626.9699,430.2716,1623.5315,434.7635,1619.0396,431.3252,1624.19,439.72" style="stroke: #A80036; stroke-width: 1.0;"/><!--link ProxyServerMediaSubsession to ProxyRTSPClient--><path d="M1641.3,439.72 C1647.32,400.183 1647.56,320.055 1642.01,277.329 " fill="none" id="ProxyServerMediaSubsession-ProxyRTSPClient" style="stroke: #A80036; stroke-width: 1.0;"/><polygon fill="#A80036" points="1641.3,272.309,1638.5934,281.7787,1641.9969,277.2602,1646.5154,280.6636,1641.3,272.309" style="stroke: #A80036; stroke-width: 1.0;"/><!--link ServerMediaSession to Medium--><path d="M1564.06,809.062 C1489.5,829.4328 1375.57,860.5582 1307.23,879.2295 " fill="none" id="ServerMediaSession-Medium" style="stroke: #A80036; stroke-width: 1.0;"/><polygon fill="none" points="1308.71,886.0802,1287.57,884.5985,1305.02,872.5751,1308.71,886.0802" style="stroke: #A80036; stroke-width: 1.0;"/><!--link ServerMediaSession to ServerMediaSubsessionIterator--><path d="M1651.17,812 C1660.76,828.1409 1673.65,849.8162 1683.84,866.9688 " fill="none" id="ServerMediaSession-ServerMediaSubsessionIterator" style="stroke: #A80036; stroke-width: 1.0;"/><polygon fill="#A80036" points="1686.64,871.6784,1685.4819,861.8979,1684.0861,867.3798,1678.6042,865.9841,1686.64,871.6784" style="stroke: #A80036; stroke-width: 1.0;"/><!--link ServerMediaSubsession to Medium--><path d="M1612.44,704.164 C1582.91,732.764 1529.12,781.371 1475.5,812 C1421.6,842.7932 1354.17,865.7931 1307.05,879.6779 " fill="none" id="ServerMediaSubsession-Medium" style="stroke: #A80036; stroke-width: 1.0;"/><polygon fill="none" points="1308.73,886.4777,1287.58,885.2388,1304.89,873.0158,1308.73,886.4777" style="stroke: #A80036; stroke-width: 1.0;"/><!--link ServerMediaSubsession to ServerMediaSession--><path d="M1635.93,704 C1636.24,720.003 1636.64,741.446 1636.96,758.528 " fill="none" id="ServerMediaSubsession-ServerMediaSession" style="stroke: #A80036; stroke-width: 1.0;"/><polygon fill="#A80036" points="1637.06,763.678,1640.8896,754.6042,1636.9657,758.6789,1632.891,754.755,1637.06,763.678" style="stroke: #A80036; stroke-width: 1.0;"/><!--link ServerMediaSubsession to ServerMediaSubsessionIterator--><path d="M1674.06,704.313 C1694.03,718.74 1716.49,739.233 1727.5,764 C1742.48,797.697 1728.49,840.0005 1715.7,867.264 " fill="none" id="ServerMediaSubsession-ServerMediaSubsessionIterator" style="stroke: #A80036; stroke-width: 1.0;"/><polygon fill="#A80036" points="1713.5,871.8401,1721.0094,865.4676,1715.6698,867.3354,1713.8019,861.9959,1713.5,871.8401" style="stroke: #A80036; stroke-width: 1.0;"/><!--link ProxyServerMediaSession to ServerMediaSession--><path d="M1792.93,380.281 C1797.9,439.499 1803.7,598.621 1736.5,704 C1724.83,722.296 1707.84,738.618 1691.22,751.844 " fill="none" id="ProxyServerMediaSession-ServerMediaSession" style="stroke: #A80036; stroke-width: 1.0;"/><polygon fill="none" points="1695.15,757.647,1674.93,763.997,1686.78,746.427,1695.15,757.647" style="stroke: #A80036; stroke-width: 1.0;"/><!--link ProxyServerMediaSession to ProxyServerMediaSubsession--><path d="M1756.22,380 C1731.25,396.75 1697.4,419.461 1671.42,436.892 " fill="none" id="ProxyServerMediaSession-ProxyServerMediaSubsession" style="stroke: #A80036; stroke-width: 1.0;"/><polygon fill="#A80036" points="1666.99,439.862,1676.6922,438.1687,1671.1419,437.076,1672.2346,431.5257,1666.99,439.862" style="stroke: #A80036; stroke-width: 1.0;"/><!--link MediaSource to Medium--><path d="M1207.22,812 C1213.4,824.1403 1221.18,839.4112 1228.38,853.5339 " fill="none" id="MediaSource-Medium" style="stroke: #A80036; stroke-width: 1.0;"/><polygon fill="none" points="1234.78,850.6801,1237.62,871.6784,1222.3,857.0351,1234.78,850.6801" style="stroke: #A80036; stroke-width: 1.0;"/><!--link FramedSource to MediaSource--><path d="M1193.93,704 C1194.15,715.588 1194.43,730.029 1194.68,743.601 " fill="none" id="FramedSource-MediaSource" style="stroke: #A80036; stroke-width: 1.0;"/><polygon fill="none" points="1201.68,743.55,1195.06,763.678,1187.68,743.814,1201.68,743.55" style="stroke: #A80036; stroke-width: 1.0;"/><!--link FramedFilter to FramedSource--><path d="M1166.88,596 C1170.68,607.864 1175.45,622.719 1179.89,636.569 " fill="none" id="FramedFilter-FramedSource" style="stroke: #A80036; stroke-width: 1.0;"/><polygon fill="none" points="1186.58,634.496,1186.02,655.678,1173.25,638.772,1186.58,634.496" style="stroke: #A80036; stroke-width: 1.0;"/><!--link PresentationTimeSubsessionNormalizer to FramedFilter--><path d="M1319.24,488 C1290.86,502.743 1253.6,522.103 1222.21,538.417 " fill="none" id="PresentationTimeSubsessionNormalizer-FramedFilter" style="stroke: #A80036; stroke-width: 1.0;"/><polygon fill="none" points="1225.01,544.852,1204.03,547.862,1218.55,532.429,1225.01,544.852" style="stroke: #A80036; stroke-width: 1.0;"/><!--link PresentationTimeSubsessionNormalizer to PresentationTimeSessionNormalizer--><path d="M1352.77,488 C1350.34,504.003 1350.1,525.446 1352.05,542.528 " fill="none" id="PresentationTimeSubsessionNormalizer-PresentationTimeSessionNormalizer" style="stroke: #A80036; stroke-width: 1.0;"/><polygon fill="#A80036" points="1352.73,547.678,1355.526,538.2343,1352.0799,542.7204,1347.5939,539.2744,1352.73,547.678" style="stroke: #A80036; stroke-width: 1.0;"/><!--link PresentationTimeSessionNormalizer to PresentationTimeSubsessionNormalizer--><path d="M1374.91,547.678 C1377.45,531.604 1377.68,510.154 1375.58,493.131 " fill="none" id="PresentationTimeSessionNormalizer-PresentationTimeSubsessionNormalizer" style="stroke: #A80036; stroke-width: 1.0;"/><polygon fill="#A80036" points="1374.86,488,1372.155,497.4701,1375.5577,492.9511,1380.0768,496.3538,1374.86,488" style="stroke: #A80036; stroke-width: 1.0;"/><!--link PresentationTimeSessionNormalizer to Medium--><path d="M1355.3,596.157 C1336.29,649.868 1288.94,783.587 1264.55,852.4805 " fill="none" id="PresentationTimeSessionNormalizer-Medium" style="stroke: #A80036; stroke-width: 1.0;"/><polygon fill="none" points="1271.05,855.1026,1257.78,871.6197,1257.85,850.4302,1271.05,855.1026" style="stroke: #A80036; stroke-width: 1.0;"/><!--link OnDemandServerMediaSubsession to ServerMediaSubsession--><path d="M1633.15,596 C1633.48,607.588 1633.89,622.029 1634.27,635.601 " fill="none" id="OnDemandServerMediaSubsession-ServerMediaSubsession" style="stroke: #A80036; stroke-width: 1.0;"/><polygon fill="none" points="1641.27,635.488,1634.84,655.678,1627.28,635.884,1641.27,635.488" style="stroke: #A80036; stroke-width: 1.0;"/><!--link OnDemandServerMediaSubsession to StreamState--><path d="M1590.19,596 C1559.12,612.889 1516.9,635.837 1484.74,653.323 " fill="none" id="OnDemandServerMediaSubsession-StreamState" style="stroke: #A80036; stroke-width: 1.0;"/><polygon fill="#A80036" points="1480.07,655.862,1489.8879,655.0818,1484.4638,653.4758,1486.0699,648.0517,1480.07,655.862" style="stroke: #A80036; stroke-width: 1.0;"/><!--link StreamState to Destinations--><path d="M1430.99,704 C1426.46,720.003 1420.39,741.446 1415.56,758.528 " fill="none" id="StreamState-Destinations" style="stroke: #A80036; stroke-width: 1.0;"/><polygon fill="#A80036" points="1414.1,763.678,1420.3981,756.1061,1415.4606,758.8667,1412.7,753.9292,1414.1,763.678" style="stroke: #A80036; stroke-width: 1.0;"/><!--link ProxyServerMediaSubsession to OnDemandServerMediaSubsession--><path d="M1632.5,488 C1632.5,499.588 1632.5,514.029 1632.5,527.601 " fill="none" id="ProxyServerMediaSubsession-OnDemandServerMediaSubsession" style="stroke: #A80036; stroke-width: 1.0;"/><polygon fill="none" points="1639.5,527.678,1632.5,547.678,1625.5,527.678,1639.5,527.678" style="stroke: #A80036; stroke-width: 1.0;"/><!--
@startuml

class Medium {
}


class GenericMediaServer {
}
GenericMediaServer ..|> Medium


class ClientConnection {
}
ClientConnection <- -+ GenericMediaServer
ClientConnection - -> GenericMediaServer


class ClientSession {
}
ClientSession <- -+ GenericMediaServer
ClientSession - -> GenericMediaServer


class RTSPServer {
}
RTSPServer - -|> GenericMediaServer
RTSPServer - -> RTSPClientConnection
RTSPServer - -> RTSPClientSession
RTSPServer - -> ServerMediaSessionIterator
RTSPServer - -> RegisterRequestRecord
RTSPServer +- -> RTSPClientConnection
RTSPServer +- -> RTSPClientSession
RTSPServer +- -> ServerMediaSessionIterator


class RegisterRequestRecord {
}
RegisterRequestRecord - -|> RTSPRegisterSender


class RTSPRegisterSender {
}
RTSPRegisterSender - -|> RTSPClient
RTSPRegisterSender +- -> RequestRecord_REGISTER


class RequestRecord_REGISTER {
}
RequestRecord_REGISTER - -|> RequestRecord


class RTSPServerWithREGISTERProxying {
}
RTSPServerWithREGISTERProxying - -|> RTSPServer


class RTSPClientConnection {
}
RTSPClientConnection - -> ClientConnection
RTSPClientConnection - -> RTSPServer
RTSPClientConnection +- -> ParamsForREGISTER


class RTSPClientSession {
}
RTSPClientSession - -> ClientSession
RTSPClientSession - -> RTSPServer


class streamState {
}
RTSPClientSession +- -> streamState


class ServerMediaSessionIterator {
}


class ParamsForREGISTER {
}
ParamsForREGISTER - -> RTSPClientConnection


class RTSPServerSupportingHTTPStreaming {
}
RTSPServerSupportingHTTPStreaming - -|> RTSPServer
RTSPServerSupportingHTTPStreaming +- -> RTSPClientConnectionSupportingHTTPStreaming


class RTSPClientConnectionSupportingHTTPStreaming {
}
RTSPClientConnectionSupportingHTTPStreaming - -|> RTSPClientConnection


class DynamicRTSPServer {
}
DynamicRTSPServer - -|> RTSPServerSupportingHTTPStreaming


class RTSPClient {
}
RTSPClient - -|> Medium
RTSPClient +- -> RequestQueue
RTSPClient +- -> RequestRecord


class HandlerServerForREGISTERCommand {
}
HandlerServerForREGISTERCommand - -|> RTSPServer


class RequestQueue {
}


class RequestRecord {
}


class ProxyRTSPClient {
}
ProxyRTSPClient - -|> RTSPClient
ProxyRTSPClient - -> ProxyServerMediaSession
ProxyRTSPClient - -> ProxyServerMediaSubsession


class ServerMediaSession {
}
ServerMediaSession - -|> Medium
ServerMediaSession - -> ServerMediaSubsessionIterator


class ServerMediaSubsession {
}
ServerMediaSubsession - -|> Medium
ServerMediaSubsession - -> ServerMediaSession
ServerMediaSubsession - -> ServerMediaSubsessionIterator


class ServerMediaSubsessionIterator {
}


class ProxyServerMediaSession {
}
ProxyServerMediaSession - -|> ServerMediaSession
ProxyServerMediaSession - -> ProxyRTSPClient
ProxyServerMediaSession - -> ProxyServerMediaSubsession


class MediaSource {
}
MediaSource - -|> Medium


class FramedSource {
}
FramedSource - -|> MediaSource


class FramedFilter {
}
FramedFilter - -|> FramedSource


class PresentationTimeSubsessionNormalizer {
}
PresentationTimeSubsessionNormalizer - -|> FramedFilter
PresentationTimeSubsessionNormalizer - -> PresentationTimeSessionNormalizer


class PresentationTimeSessionNormalizer {
}
PresentationTimeSessionNormalizer - -|> Medium
PresentationTimeSessionNormalizer - -> PresentationTimeSubsessionNormalizer


class OnDemandServerMediaSubsession {
}
OnDemandServerMediaSubsession - -|> ServerMediaSubsession
OnDemandServerMediaSubsession - -> StreamState


class Destinations {
}


class StreamState {
}
StreamState - -> Destinations


class ProxyServerMediaSubsession {
}
ProxyServerMediaSubsession - -|> OnDemandServerMediaSubsession
ProxyServerMediaSubsession - -> ProxyRTSPClient


@enduml

PlantUML version 1.2018.00(Fri Jan 05 03:42:56 CST 2018)
(GPL source distribution)
Java Runtime: Java(TM) SE Runtime Environment
JVM: Java HotSpot(TM) 64-Bit Server VM
Java Version: 1.8.0_131-b11
Operating System: Windows 10
OS Version: 10.0
Default Encoding: GBK
Language: zh
Country: CN
--></g></svg>