<?xml version="1.0" encoding="UTF-8" standalone="no"?><svg xmlns="http://www.w3.org/2000/svg" xmlns:xlink="http://www.w3.org/1999/xlink" contentScriptType="application/ecmascript" contentStyleType="text/css" height="499px" preserveAspectRatio="none" style="width:2492px;height:499px;" version="1.1" viewBox="0 0 2492 499" width="2492px" zoomAndPan="magnify"><defs><filter height="300%" id="fwojk7y7ilyc" width="300%" x="-1" y="-1"><feGaussianBlur result="blurOut" stdDeviation="2.0"/><feColorMatrix in="blurOut" result="blurOut2" type="matrix" values="0 0 0 0 0 0 0 0 0 0 0 0 0 0 0 0 0 0 .4 0"/><feOffset dx="4.0" dy="4.0" in="blurOut2" result="blurOut3"/><feBlend in="SourceGraphic" in2="blurOut3" mode="normal"/></filter></defs><g><!--class Medium--><rect fill="#FEFECE" filter="url(#fwojk7y7ilyc)" height="48" id="Medium" style="stroke: #A80036; stroke-width: 1.5;" width="76" x="1472.5" y="8"/><ellipse cx="1487.5" cy="24" fill="#ADD1B2" rx="11" ry="11" style="stroke: #A80036; stroke-width: 1.0;"/><path d="M1486.0781,29.3594 Q1484.2188,29.3594 1483.125,27.9688 Q1482.0313,26.5781 1482.0313,23.5938 Q1482.0313,21.0625 1483.1953,19.4063 Q1484.3594,17.75 1486.3438,17.75 Q1487.8125,17.75 1488.2813,17.875 Q1488.75,18.0781 1488.75,18.0781 Q1488.75,18.0781 1488.75,18.0078 Q1488.75,17.9375 1489.3594,17.0156 L1490.4063,20.6719 L1489.0781,21.0781 Q1488.6094,19.5313 1487.9453,18.8672 Q1487.2813,18.2031 1486.2188,18.2031 Q1485.8281,18.2031 1485.0625,19.7344 Q1484.2969,21.2656 1484.2969,23.5156 Q1484.2969,25.9844 1484.9609,27.375 Q1485.625,28.7656 1486.1563,28.7656 Q1487.2188,28.7656 1487.9766,28 Q1488.7344,27.2344 1489.0781,25.5781 L1490.4063,26.1719 Q1490.0781,27.5781 1489.1797,28.4688 Q1488.2813,29.3594 1486.0781,29.3594 Z "/><text fill="#000000" font-family="sans-serif" font-size="12" lengthAdjust="spacingAndGlyphs" textLength="44" x="1501.5" y="29.5576">Medium</text><line style="stroke: #A80036; stroke-width: 1.5;" x1="1473.5" x2="1547.5" y1="40" y2="40"/><line style="stroke: #A80036; stroke-width: 1.5;" x1="1473.5" x2="1547.5" y1="48" y2="48"/><!--class GenericMediaServer--><rect fill="#FEFECE" filter="url(#fwojk7y7ilyc)" height="48" id="GenericMediaServer" style="stroke: #A80036; stroke-width: 1.5;" width="143" x="982" y="116"/><ellipse cx="997" cy="132" fill="#ADD1B2" rx="11" ry="11" style="stroke: #A80036; stroke-width: 1.0;"/><path d="M995.5781,137.3594 Q993.7188,137.3594 992.625,135.9688 Q991.5313,134.5781 991.5313,131.5938 Q991.5313,129.0625 992.6953,127.4063 Q993.8594,125.75 995.8438,125.75 Q997.3125,125.75 997.7813,125.875 Q998.25,126.0781 998.25,126.0781 Q998.25,126.0781 998.25,126.0078 Q998.25,125.9375 998.8594,125.0156 L999.9063,128.6719 L998.5781,129.0781 Q998.1094,127.5313 997.4453,126.8672 Q996.7813,126.2031 995.7188,126.2031 Q995.3281,126.2031 994.5625,127.7344 Q993.7969,129.2656 993.7969,131.5156 Q993.7969,133.9844 994.4609,135.375 Q995.125,136.7656 995.6563,136.7656 Q996.7188,136.7656 997.4766,136 Q998.2344,135.2344 998.5781,133.5781 L999.9063,134.1719 Q999.5781,135.5781 998.6797,136.4688 Q997.7813,137.3594 995.5781,137.3594 Z "/><text fill="#000000" font-family="sans-serif" font-size="12" lengthAdjust="spacingAndGlyphs" textLength="111" x="1011" y="137.5576">GenericMediaServer</text><line style="stroke: #A80036; stroke-width: 1.5;" x1="983" x2="1124" y1="148" y2="148"/><line style="stroke: #A80036; stroke-width: 1.5;" x1="983" x2="1124" y1="156" y2="156"/><!--class ClientConnection--><rect fill="#FEFECE" filter="url(#fwojk7y7ilyc)" height="48" id="ClientConnection" style="stroke: #A80036; stroke-width: 1.5;" width="127" x="470" y="224"/><ellipse cx="485" cy="240" fill="#ADD1B2" rx="11" ry="11" style="stroke: #A80036; stroke-width: 1.0;"/><path d="M483.5781,245.3594 Q481.7188,245.3594 480.625,243.9688 Q479.5313,242.5781 479.5313,239.5938 Q479.5313,237.0625 480.6953,235.4063 Q481.8594,233.75 483.8438,233.75 Q485.3125,233.75 485.7813,233.875 Q486.25,234.0781 486.25,234.0781 Q486.25,234.0781 486.25,234.0078 Q486.25,233.9375 486.8594,233.0156 L487.9063,236.6719 L486.5781,237.0781 Q486.1094,235.5313 485.4453,234.8672 Q484.7813,234.2031 483.7188,234.2031 Q483.3281,234.2031 482.5625,235.7344 Q481.7969,237.2656 481.7969,239.5156 Q481.7969,241.9844 482.4609,243.375 Q483.125,244.7656 483.6563,244.7656 Q484.7188,244.7656 485.4766,244 Q486.2344,243.2344 486.5781,241.5781 L487.9063,242.1719 Q487.5781,243.5781 486.6797,244.4688 Q485.7813,245.3594 483.5781,245.3594 Z "/><text fill="#000000" font-family="sans-serif" font-size="12" lengthAdjust="spacingAndGlyphs" textLength="95" x="499" y="245.5576">ClientConnection</text><line style="stroke: #A80036; stroke-width: 1.5;" x1="471" x2="596" y1="256" y2="256"/><line style="stroke: #A80036; stroke-width: 1.5;" x1="471" x2="596" y1="264" y2="264"/><!--class ClientSession--><rect fill="#FEFECE" filter="url(#fwojk7y7ilyc)" height="48" id="ClientSession" style="stroke: #A80036; stroke-width: 1.5;" width="110" x="1073.5" y="224"/><ellipse cx="1088.5" cy="240" fill="#ADD1B2" rx="11" ry="11" style="stroke: #A80036; stroke-width: 1.0;"/><path d="M1087.0781,245.3594 Q1085.2188,245.3594 1084.125,243.9688 Q1083.0313,242.5781 1083.0313,239.5938 Q1083.0313,237.0625 1084.1953,235.4063 Q1085.3594,233.75 1087.3438,233.75 Q1088.8125,233.75 1089.2813,233.875 Q1089.75,234.0781 1089.75,234.0781 Q1089.75,234.0781 1089.75,234.0078 Q1089.75,233.9375 1090.3594,233.0156 L1091.4063,236.6719 L1090.0781,237.0781 Q1089.6094,235.5313 1088.9453,234.8672 Q1088.2813,234.2031 1087.2188,234.2031 Q1086.8281,234.2031 1086.0625,235.7344 Q1085.2969,237.2656 1085.2969,239.5156 Q1085.2969,241.9844 1085.9609,243.375 Q1086.625,244.7656 1087.1563,244.7656 Q1088.2188,244.7656 1088.9766,244 Q1089.7344,243.2344 1090.0781,241.5781 L1091.4063,242.1719 Q1091.0781,243.5781 1090.1797,244.4688 Q1089.2813,245.3594 1087.0781,245.3594 Z "/><text fill="#000000" font-family="sans-serif" font-size="12" lengthAdjust="spacingAndGlyphs" textLength="78" x="1102.5" y="245.5576">ClientSession</text><line style="stroke: #A80036; stroke-width: 1.5;" x1="1074.5" x2="1182.5" y1="256" y2="256"/><line style="stroke: #A80036; stroke-width: 1.5;" x1="1074.5" x2="1182.5" y1="264" y2="264"/><!--class RTSPServer--><rect fill="#FEFECE" filter="url(#fwojk7y7ilyc)" height="48" id="RTSPServer" style="stroke: #A80036; stroke-width: 1.5;" width="99" x="935" y="224"/><ellipse cx="950" cy="240" fill="#ADD1B2" rx="11" ry="11" style="stroke: #A80036; stroke-width: 1.0;"/><path d="M948.5781,245.3594 Q946.7188,245.3594 945.625,243.9688 Q944.5313,242.5781 944.5313,239.5938 Q944.5313,237.0625 945.6953,235.4063 Q946.8594,233.75 948.8438,233.75 Q950.3125,233.75 950.7813,233.875 Q951.25,234.0781 951.25,234.0781 Q951.25,234.0781 951.25,234.0078 Q951.25,233.9375 951.8594,233.0156 L952.9063,236.6719 L951.5781,237.0781 Q951.1094,235.5313 950.4453,234.8672 Q949.7813,234.2031 948.7188,234.2031 Q948.3281,234.2031 947.5625,235.7344 Q946.7969,237.2656 946.7969,239.5156 Q946.7969,241.9844 947.4609,243.375 Q948.125,244.7656 948.6563,244.7656 Q949.7188,244.7656 950.4766,244 Q951.2344,243.2344 951.5781,241.5781 L952.9063,242.1719 Q952.5781,243.5781 951.6797,244.4688 Q950.7813,245.3594 948.5781,245.3594 Z "/><text fill="#000000" font-family="sans-serif" font-size="12" lengthAdjust="spacingAndGlyphs" textLength="67" x="964" y="245.5576">RTSPServer</text><line style="stroke: #A80036; stroke-width: 1.5;" x1="936" x2="1033" y1="256" y2="256"/><line style="stroke: #A80036; stroke-width: 1.5;" x1="936" x2="1033" y1="264" y2="264"/><!--class RTSPServerWithREGISTERProxying--><rect fill="#FEFECE" filter="url(#fwojk7y7ilyc)" height="48" id="RTSPServerWithREGISTERProxying" style="stroke: #A80036; stroke-width: 1.5;" width="230" x="627.5" y="332"/><ellipse cx="642.5" cy="348" fill="#ADD1B2" rx="11" ry="11" style="stroke: #A80036; stroke-width: 1.0;"/><path d="M641.0781,353.3594 Q639.2188,353.3594 638.125,351.9688 Q637.0313,350.5781 637.0313,347.5938 Q637.0313,345.0625 638.1953,343.4063 Q639.3594,341.75 641.3438,341.75 Q642.8125,341.75 643.2813,341.875 Q643.75,342.0781 643.75,342.0781 Q643.75,342.0781 643.75,342.0078 Q643.75,341.9375 644.3594,341.0156 L645.4063,344.6719 L644.0781,345.0781 Q643.6094,343.5313 642.9453,342.8672 Q642.2813,342.2031 641.2188,342.2031 Q640.8281,342.2031 640.0625,343.7344 Q639.2969,345.2656 639.2969,347.5156 Q639.2969,349.9844 639.9609,351.375 Q640.625,352.7656 641.1563,352.7656 Q642.2188,352.7656 642.9766,352 Q643.7344,351.2344 644.0781,349.5781 L645.4063,350.1719 Q645.0781,351.5781 644.1797,352.4688 Q643.2813,353.3594 641.0781,353.3594 Z "/><text fill="#000000" font-family="sans-serif" font-size="12" lengthAdjust="spacingAndGlyphs" textLength="198" x="656.5" y="353.5576">RTSPServerWithREGISTERProxying</text><line style="stroke: #A80036; stroke-width: 1.5;" x1="628.5" x2="856.5" y1="364" y2="364"/><line style="stroke: #A80036; stroke-width: 1.5;" x1="628.5" x2="856.5" y1="372" y2="372"/><!--class RTSPClientConnection--><rect fill="#FEFECE" filter="url(#fwojk7y7ilyc)" height="48" id="RTSPClientConnection" style="stroke: #A80036; stroke-width: 1.5;" width="159" x="151" y="332"/><ellipse cx="166" cy="348" fill="#ADD1B2" rx="11" ry="11" style="stroke: #A80036; stroke-width: 1.0;"/><path d="M164.5781,353.3594 Q162.7188,353.3594 161.625,351.9688 Q160.5313,350.5781 160.5313,347.5938 Q160.5313,345.0625 161.6953,343.4063 Q162.8594,341.75 164.8438,341.75 Q166.3125,341.75 166.7813,341.875 Q167.25,342.0781 167.25,342.0781 Q167.25,342.0781 167.25,342.0078 Q167.25,341.9375 167.8594,341.0156 L168.9063,344.6719 L167.5781,345.0781 Q167.1094,343.5313 166.4453,342.8672 Q165.7813,342.2031 164.7188,342.2031 Q164.3281,342.2031 163.5625,343.7344 Q162.7969,345.2656 162.7969,347.5156 Q162.7969,349.9844 163.4609,351.375 Q164.125,352.7656 164.6563,352.7656 Q165.7188,352.7656 166.4766,352 Q167.2344,351.2344 167.5781,349.5781 L168.9063,350.1719 Q168.5781,351.5781 167.6797,352.4688 Q166.7813,353.3594 164.5781,353.3594 Z "/><text fill="#000000" font-family="sans-serif" font-size="12" lengthAdjust="spacingAndGlyphs" textLength="127" x="180" y="353.5576">RTSPClientConnection</text><line style="stroke: #A80036; stroke-width: 1.5;" x1="152" x2="309" y1="364" y2="364"/><line style="stroke: #A80036; stroke-width: 1.5;" x1="152" x2="309" y1="372" y2="372"/><!--class RTSPClientSession--><rect fill="#FEFECE" filter="url(#fwojk7y7ilyc)" height="48" id="RTSPClientSession" style="stroke: #A80036; stroke-width: 1.5;" width="142" x="1396.5" y="332"/><ellipse cx="1411.5" cy="348" fill="#ADD1B2" rx="11" ry="11" style="stroke: #A80036; stroke-width: 1.0;"/><path d="M1410.0781,353.3594 Q1408.2188,353.3594 1407.125,351.9688 Q1406.0313,350.5781 1406.0313,347.5938 Q1406.0313,345.0625 1407.1953,343.4063 Q1408.3594,341.75 1410.3438,341.75 Q1411.8125,341.75 1412.2813,341.875 Q1412.75,342.0781 1412.75,342.0781 Q1412.75,342.0781 1412.75,342.0078 Q1412.75,341.9375 1413.3594,341.0156 L1414.4063,344.6719 L1413.0781,345.0781 Q1412.6094,343.5313 1411.9453,342.8672 Q1411.2813,342.2031 1410.2188,342.2031 Q1409.8281,342.2031 1409.0625,343.7344 Q1408.2969,345.2656 1408.2969,347.5156 Q1408.2969,349.9844 1408.9609,351.375 Q1409.625,352.7656 1410.1563,352.7656 Q1411.2188,352.7656 1411.9766,352 Q1412.7344,351.2344 1413.0781,349.5781 L1414.4063,350.1719 Q1414.0781,351.5781 1413.1797,352.4688 Q1412.2813,353.3594 1410.0781,353.3594 Z "/><text fill="#000000" font-family="sans-serif" font-size="12" lengthAdjust="spacingAndGlyphs" textLength="110" x="1425.5" y="353.5576">RTSPClientSession</text><line style="stroke: #A80036; stroke-width: 1.5;" x1="1397.5" x2="1537.5" y1="364" y2="364"/><line style="stroke: #A80036; stroke-width: 1.5;" x1="1397.5" x2="1537.5" y1="372" y2="372"/><!--class streamState--><rect fill="#FEFECE" filter="url(#fwojk7y7ilyc)" height="48" id="streamState" style="stroke: #A80036; stroke-width: 1.5;" width="99" x="1418" y="440"/><ellipse cx="1433" cy="456" fill="#ADD1B2" rx="11" ry="11" style="stroke: #A80036; stroke-width: 1.0;"/><path d="M1431.5781,461.3594 Q1429.7188,461.3594 1428.625,459.9688 Q1427.5313,458.5781 1427.5313,455.5938 Q1427.5313,453.0625 1428.6953,451.4063 Q1429.8594,449.75 1431.8438,449.75 Q1433.3125,449.75 1433.7813,449.875 Q1434.25,450.0781 1434.25,450.0781 Q1434.25,450.0781 1434.25,450.0078 Q1434.25,449.9375 1434.8594,449.0156 L1435.9063,452.6719 L1434.5781,453.0781 Q1434.1094,451.5313 1433.4453,450.8672 Q1432.7813,450.2031 1431.7188,450.2031 Q1431.3281,450.2031 1430.5625,451.7344 Q1429.7969,453.2656 1429.7969,455.5156 Q1429.7969,457.9844 1430.4609,459.375 Q1431.125,460.7656 1431.6563,460.7656 Q1432.7188,460.7656 1433.4766,460 Q1434.2344,459.2344 1434.5781,457.5781 L1435.9063,458.1719 Q1435.5781,459.5781 1434.6797,460.4688 Q1433.7813,461.3594 1431.5781,461.3594 Z "/><text fill="#000000" font-family="sans-serif" font-size="12" lengthAdjust="spacingAndGlyphs" textLength="67" x="1447" y="461.5576">streamState</text><line style="stroke: #A80036; stroke-width: 1.5;" x1="1419" x2="1516" y1="472" y2="472"/><line style="stroke: #A80036; stroke-width: 1.5;" x1="1419" x2="1516" y1="480" y2="480"/><!--class ServerMediaSessionIterator--><rect fill="#FEFECE" filter="url(#fwojk7y7ilyc)" height="48" id="ServerMediaSessionIterator" style="stroke: #A80036; stroke-width: 1.5;" width="184" x="892.5" y="332"/><ellipse cx="907.5" cy="348" fill="#ADD1B2" rx="11" ry="11" style="stroke: #A80036; stroke-width: 1.0;"/><path d="M906.0781,353.3594 Q904.2188,353.3594 903.125,351.9688 Q902.0313,350.5781 902.0313,347.5938 Q902.0313,345.0625 903.1953,343.4063 Q904.3594,341.75 906.3438,341.75 Q907.8125,341.75 908.2813,341.875 Q908.75,342.0781 908.75,342.0781 Q908.75,342.0781 908.75,342.0078 Q908.75,341.9375 909.3594,341.0156 L910.4063,344.6719 L909.0781,345.0781 Q908.6094,343.5313 907.9453,342.8672 Q907.2813,342.2031 906.2188,342.2031 Q905.8281,342.2031 905.0625,343.7344 Q904.2969,345.2656 904.2969,347.5156 Q904.2969,349.9844 904.9609,351.375 Q905.625,352.7656 906.1563,352.7656 Q907.2188,352.7656 907.9766,352 Q908.7344,351.2344 909.0781,349.5781 L910.4063,350.1719 Q910.0781,351.5781 909.1797,352.4688 Q908.2813,353.3594 906.0781,353.3594 Z "/><text fill="#000000" font-family="sans-serif" font-size="12" lengthAdjust="spacingAndGlyphs" textLength="152" x="921.5" y="353.5576">ServerMediaSessionIterator</text><line style="stroke: #A80036; stroke-width: 1.5;" x1="893.5" x2="1075.5" y1="364" y2="364"/><line style="stroke: #A80036; stroke-width: 1.5;" x1="893.5" x2="1075.5" y1="372" y2="372"/><!--class ParamsForREGISTER--><rect fill="#FEFECE" filter="url(#fwojk7y7ilyc)" height="48" id="ParamsForREGISTER" style="stroke: #A80036; stroke-width: 1.5;" width="155" x="6" y="440"/><ellipse cx="21" cy="456" fill="#ADD1B2" rx="11" ry="11" style="stroke: #A80036; stroke-width: 1.0;"/><path d="M19.5781,461.3594 Q17.7188,461.3594 16.625,459.9688 Q15.5313,458.5781 15.5313,455.5938 Q15.5313,453.0625 16.6953,451.4063 Q17.8594,449.75 19.8438,449.75 Q21.3125,449.75 21.7813,449.875 Q22.25,450.0781 22.25,450.0781 Q22.25,450.0781 22.25,450.0078 Q22.25,449.9375 22.8594,449.0156 L23.9063,452.6719 L22.5781,453.0781 Q22.1094,451.5313 21.4453,450.8672 Q20.7813,450.2031 19.7188,450.2031 Q19.3281,450.2031 18.5625,451.7344 Q17.7969,453.2656 17.7969,455.5156 Q17.7969,457.9844 18.4609,459.375 Q19.125,460.7656 19.6563,460.7656 Q20.7188,460.7656 21.4766,460 Q22.2344,459.2344 22.5781,457.5781 L23.9063,458.1719 Q23.5781,459.5781 22.6797,460.4688 Q21.7813,461.3594 19.5781,461.3594 Z "/><text fill="#000000" font-family="sans-serif" font-size="12" lengthAdjust="spacingAndGlyphs" textLength="123" x="35" y="461.5576">ParamsForREGISTER</text><line style="stroke: #A80036; stroke-width: 1.5;" x1="7" x2="160" y1="472" y2="472"/><line style="stroke: #A80036; stroke-width: 1.5;" x1="7" x2="160" y1="480" y2="480"/><!--class RTSPServerSupportingHTTPStreaming--><rect fill="#FEFECE" filter="url(#fwojk7y7ilyc)" height="48" id="RTSPServerSupportingHTTPStreaming" style="stroke: #A80036; stroke-width: 1.5;" width="247" x="345" y="332"/><ellipse cx="360" cy="348" fill="#ADD1B2" rx="11" ry="11" style="stroke: #A80036; stroke-width: 1.0;"/><path d="M358.5781,353.3594 Q356.7188,353.3594 355.625,351.9688 Q354.5313,350.5781 354.5313,347.5938 Q354.5313,345.0625 355.6953,343.4063 Q356.8594,341.75 358.8438,341.75 Q360.3125,341.75 360.7813,341.875 Q361.25,342.0781 361.25,342.0781 Q361.25,342.0781 361.25,342.0078 Q361.25,341.9375 361.8594,341.0156 L362.9063,344.6719 L361.5781,345.0781 Q361.1094,343.5313 360.4453,342.8672 Q359.7813,342.2031 358.7188,342.2031 Q358.3281,342.2031 357.5625,343.7344 Q356.7969,345.2656 356.7969,347.5156 Q356.7969,349.9844 357.4609,351.375 Q358.125,352.7656 358.6563,352.7656 Q359.7188,352.7656 360.4766,352 Q361.2344,351.2344 361.5781,349.5781 L362.9063,350.1719 Q362.5781,351.5781 361.6797,352.4688 Q360.7813,353.3594 358.5781,353.3594 Z "/><text fill="#000000" font-family="sans-serif" font-size="12" lengthAdjust="spacingAndGlyphs" textLength="215" x="374" y="353.5576">RTSPServerSupportingHTTPStreaming</text><line style="stroke: #A80036; stroke-width: 1.5;" x1="346" x2="591" y1="364" y2="364"/><line style="stroke: #A80036; stroke-width: 1.5;" x1="346" x2="591" y1="372" y2="372"/><!--class RTSPClientConnectionSupportingHTTPStreaming--><rect fill="#FEFECE" filter="url(#fwojk7y7ilyc)" height="48" id="RTSPClientConnectionSupportingHTTPStreaming" style="stroke: #A80036; stroke-width: 1.5;" width="307" x="196" y="440"/><ellipse cx="211" cy="456" fill="#ADD1B2" rx="11" ry="11" style="stroke: #A80036; stroke-width: 1.0;"/><path d="M209.5781,461.3594 Q207.7188,461.3594 206.625,459.9688 Q205.5313,458.5781 205.5313,455.5938 Q205.5313,453.0625 206.6953,451.4063 Q207.8594,449.75 209.8438,449.75 Q211.3125,449.75 211.7813,449.875 Q212.25,450.0781 212.25,450.0781 Q212.25,450.0781 212.25,450.0078 Q212.25,449.9375 212.8594,449.0156 L213.9063,452.6719 L212.5781,453.0781 Q212.1094,451.5313 211.4453,450.8672 Q210.7813,450.2031 209.7188,450.2031 Q209.3281,450.2031 208.5625,451.7344 Q207.7969,453.2656 207.7969,455.5156 Q207.7969,457.9844 208.4609,459.375 Q209.125,460.7656 209.6563,460.7656 Q210.7188,460.7656 211.4766,460 Q212.2344,459.2344 212.5781,457.5781 L213.9063,458.1719 Q213.5781,459.5781 212.6797,460.4688 Q211.7813,461.3594 209.5781,461.3594 Z "/><text fill="#000000" font-family="sans-serif" font-size="12" lengthAdjust="spacingAndGlyphs" textLength="275" x="225" y="461.5576">RTSPClientConnectionSupportingHTTPStreaming</text><line style="stroke: #A80036; stroke-width: 1.5;" x1="197" x2="502" y1="472" y2="472"/><line style="stroke: #A80036; stroke-width: 1.5;" x1="197" x2="502" y1="480" y2="480"/><!--class DynamicRTSPServer--><rect fill="#FEFECE" filter="url(#fwojk7y7ilyc)" height="48" id="DynamicRTSPServer" style="stroke: #A80036; stroke-width: 1.5;" width="147" x="538" y="440"/><ellipse cx="553" cy="456" fill="#ADD1B2" rx="11" ry="11" style="stroke: #A80036; stroke-width: 1.0;"/><path d="M551.5781,461.3594 Q549.7188,461.3594 548.625,459.9688 Q547.5313,458.5781 547.5313,455.5938 Q547.5313,453.0625 548.6953,451.4063 Q549.8594,449.75 551.8438,449.75 Q553.3125,449.75 553.7813,449.875 Q554.25,450.0781 554.25,450.0781 Q554.25,450.0781 554.25,450.0078 Q554.25,449.9375 554.8594,449.0156 L555.9063,452.6719 L554.5781,453.0781 Q554.1094,451.5313 553.4453,450.8672 Q552.7813,450.2031 551.7188,450.2031 Q551.3281,450.2031 550.5625,451.7344 Q549.7969,453.2656 549.7969,455.5156 Q549.7969,457.9844 550.4609,459.375 Q551.125,460.7656 551.6563,460.7656 Q552.7188,460.7656 553.4766,460 Q554.2344,459.2344 554.5781,457.5781 L555.9063,458.1719 Q555.5781,459.5781 554.6797,460.4688 Q553.7813,461.3594 551.5781,461.3594 Z "/><text fill="#000000" font-family="sans-serif" font-size="12" lengthAdjust="spacingAndGlyphs" textLength="115" x="567" y="461.5576">DynamicRTSPServer</text><line style="stroke: #A80036; stroke-width: 1.5;" x1="539" x2="684" y1="472" y2="472"/><line style="stroke: #A80036; stroke-width: 1.5;" x1="539" x2="684" y1="480" y2="480"/><!--class RTSPClient--><rect fill="#FEFECE" filter="url(#fwojk7y7ilyc)" height="48" id="RTSPClient" style="stroke: #A80036; stroke-width: 1.5;" width="96" x="1306.5" y="116"/><ellipse cx="1321.5" cy="132" fill="#ADD1B2" rx="11" ry="11" style="stroke: #A80036; stroke-width: 1.0;"/><path d="M1320.0781,137.3594 Q1318.2188,137.3594 1317.125,135.9688 Q1316.0313,134.5781 1316.0313,131.5938 Q1316.0313,129.0625 1317.1953,127.4063 Q1318.3594,125.75 1320.3438,125.75 Q1321.8125,125.75 1322.2813,125.875 Q1322.75,126.0781 1322.75,126.0781 Q1322.75,126.0781 1322.75,126.0078 Q1322.75,125.9375 1323.3594,125.0156 L1324.4063,128.6719 L1323.0781,129.0781 Q1322.6094,127.5313 1321.9453,126.8672 Q1321.2813,126.2031 1320.2188,126.2031 Q1319.8281,126.2031 1319.0625,127.7344 Q1318.2969,129.2656 1318.2969,131.5156 Q1318.2969,133.9844 1318.9609,135.375 Q1319.625,136.7656 1320.1563,136.7656 Q1321.2188,136.7656 1321.9766,136 Q1322.7344,135.2344 1323.0781,133.5781 L1324.4063,134.1719 Q1324.0781,135.5781 1323.1797,136.4688 Q1322.2813,137.3594 1320.0781,137.3594 Z "/><text fill="#000000" font-family="sans-serif" font-size="12" lengthAdjust="spacingAndGlyphs" textLength="64" x="1335.5" y="137.5576">RTSPClient</text><line style="stroke: #A80036; stroke-width: 1.5;" x1="1307.5" x2="1401.5" y1="148" y2="148"/><line style="stroke: #A80036; stroke-width: 1.5;" x1="1307.5" x2="1401.5" y1="156" y2="156"/><!--class RequestQueue--><rect fill="#FEFECE" filter="url(#fwojk7y7ilyc)" height="48" id="RequestQueue" style="stroke: #A80036; stroke-width: 1.5;" width="116" x="1220.5" y="224"/><ellipse cx="1235.5" cy="240" fill="#ADD1B2" rx="11" ry="11" style="stroke: #A80036; stroke-width: 1.0;"/><path d="M1234.0781,245.3594 Q1232.2188,245.3594 1231.125,243.9688 Q1230.0313,242.5781 1230.0313,239.5938 Q1230.0313,237.0625 1231.1953,235.4063 Q1232.3594,233.75 1234.3438,233.75 Q1235.8125,233.75 1236.2813,233.875 Q1236.75,234.0781 1236.75,234.0781 Q1236.75,234.0781 1236.75,234.0078 Q1236.75,233.9375 1237.3594,233.0156 L1238.4063,236.6719 L1237.0781,237.0781 Q1236.6094,235.5313 1235.9453,234.8672 Q1235.2813,234.2031 1234.2188,234.2031 Q1233.8281,234.2031 1233.0625,235.7344 Q1232.2969,237.2656 1232.2969,239.5156 Q1232.2969,241.9844 1232.9609,243.375 Q1233.625,244.7656 1234.1563,244.7656 Q1235.2188,244.7656 1235.9766,244 Q1236.7344,243.2344 1237.0781,241.5781 L1238.4063,242.1719 Q1238.0781,243.5781 1237.1797,244.4688 Q1236.2813,245.3594 1234.0781,245.3594 Z "/><text fill="#000000" font-family="sans-serif" font-size="12" lengthAdjust="spacingAndGlyphs" textLength="84" x="1249.5" y="245.5576">RequestQueue</text><line style="stroke: #A80036; stroke-width: 1.5;" x1="1221.5" x2="1335.5" y1="256" y2="256"/><line style="stroke: #A80036; stroke-width: 1.5;" x1="1221.5" x2="1335.5" y1="264" y2="264"/><!--class RequestRecord--><rect fill="#FEFECE" filter="url(#fwojk7y7ilyc)" height="48" id="RequestRecord" style="stroke: #A80036; stroke-width: 1.5;" width="119" x="1372" y="224"/><ellipse cx="1387" cy="240" fill="#ADD1B2" rx="11" ry="11" style="stroke: #A80036; stroke-width: 1.0;"/><path d="M1385.5781,245.3594 Q1383.7188,245.3594 1382.625,243.9688 Q1381.5313,242.5781 1381.5313,239.5938 Q1381.5313,237.0625 1382.6953,235.4063 Q1383.8594,233.75 1385.8438,233.75 Q1387.3125,233.75 1387.7813,233.875 Q1388.25,234.0781 1388.25,234.0781 Q1388.25,234.0781 1388.25,234.0078 Q1388.25,233.9375 1388.8594,233.0156 L1389.9063,236.6719 L1388.5781,237.0781 Q1388.1094,235.5313 1387.4453,234.8672 Q1386.7813,234.2031 1385.7188,234.2031 Q1385.3281,234.2031 1384.5625,235.7344 Q1383.7969,237.2656 1383.7969,239.5156 Q1383.7969,241.9844 1384.4609,243.375 Q1385.125,244.7656 1385.6563,244.7656 Q1386.7188,244.7656 1387.4766,244 Q1388.2344,243.2344 1388.5781,241.5781 L1389.9063,242.1719 Q1389.5781,243.5781 1388.6797,244.4688 Q1387.7813,245.3594 1385.5781,245.3594 Z "/><text fill="#000000" font-family="sans-serif" font-size="12" lengthAdjust="spacingAndGlyphs" textLength="87" x="1401" y="245.5576">RequestRecord</text><line style="stroke: #A80036; stroke-width: 1.5;" x1="1373" x2="1490" y1="256" y2="256"/><line style="stroke: #A80036; stroke-width: 1.5;" x1="1373" x2="1490" y1="264" y2="264"/><!--class ProxyRTSPClient--><rect fill="#FEFECE" filter="url(#fwojk7y7ilyc)" height="48" id="ProxyRTSPClient" style="stroke: #A80036; stroke-width: 1.5;" width="125" x="1535" y="224"/><ellipse cx="1550" cy="240" fill="#ADD1B2" rx="11" ry="11" style="stroke: #A80036; stroke-width: 1.0;"/><path d="M1548.5781,245.3594 Q1546.7188,245.3594 1545.625,243.9688 Q1544.5313,242.5781 1544.5313,239.5938 Q1544.5313,237.0625 1545.6953,235.4063 Q1546.8594,233.75 1548.8438,233.75 Q1550.3125,233.75 1550.7813,233.875 Q1551.25,234.0781 1551.25,234.0781 Q1551.25,234.0781 1551.25,234.0078 Q1551.25,233.9375 1551.8594,233.0156 L1552.9063,236.6719 L1551.5781,237.0781 Q1551.1094,235.5313 1550.4453,234.8672 Q1549.7813,234.2031 1548.7188,234.2031 Q1548.3281,234.2031 1547.5625,235.7344 Q1546.7969,237.2656 1546.7969,239.5156 Q1546.7969,241.9844 1547.4609,243.375 Q1548.125,244.7656 1548.6563,244.7656 Q1549.7188,244.7656 1550.4766,244 Q1551.2344,243.2344 1551.5781,241.5781 L1552.9063,242.1719 Q1552.5781,243.5781 1551.6797,244.4688 Q1550.7813,245.3594 1548.5781,245.3594 Z "/><text fill="#000000" font-family="sans-serif" font-size="12" lengthAdjust="spacingAndGlyphs" textLength="93" x="1564" y="245.5576">ProxyRTSPClient</text><line style="stroke: #A80036; stroke-width: 1.5;" x1="1536" x2="1659" y1="256" y2="256"/><line style="stroke: #A80036; stroke-width: 1.5;" x1="1536" x2="1659" y1="264" y2="264"/><!--class ProxyServerMediaSession--><rect fill="#FEFECE" filter="url(#fwojk7y7ilyc)" height="48" id="ProxyServerMediaSession" style="stroke: #A80036; stroke-width: 1.5;" width="175" x="1645" y="332"/><ellipse cx="1660" cy="348" fill="#ADD1B2" rx="11" ry="11" style="stroke: #A80036; stroke-width: 1.0;"/><path d="M1658.5781,353.3594 Q1656.7188,353.3594 1655.625,351.9688 Q1654.5313,350.5781 1654.5313,347.5938 Q1654.5313,345.0625 1655.6953,343.4063 Q1656.8594,341.75 1658.8438,341.75 Q1660.3125,341.75 1660.7813,341.875 Q1661.25,342.0781 1661.25,342.0781 Q1661.25,342.0781 1661.25,342.0078 Q1661.25,341.9375 1661.8594,341.0156 L1662.9063,344.6719 L1661.5781,345.0781 Q1661.1094,343.5313 1660.4453,342.8672 Q1659.7813,342.2031 1658.7188,342.2031 Q1658.3281,342.2031 1657.5625,343.7344 Q1656.7969,345.2656 1656.7969,347.5156 Q1656.7969,349.9844 1657.4609,351.375 Q1658.125,352.7656 1658.6563,352.7656 Q1659.7188,352.7656 1660.4766,352 Q1661.2344,351.2344 1661.5781,349.5781 L1662.9063,350.1719 Q1662.5781,351.5781 1661.6797,352.4688 Q1660.7813,353.3594 1658.5781,353.3594 Z "/><text fill="#000000" font-family="sans-serif" font-size="12" lengthAdjust="spacingAndGlyphs" textLength="143" x="1674" y="353.5576">ProxyServerMediaSession</text><line style="stroke: #A80036; stroke-width: 1.5;" x1="1646" x2="1819" y1="364" y2="364"/><line style="stroke: #A80036; stroke-width: 1.5;" x1="1646" x2="1819" y1="372" y2="372"/><!--class ProxyServerMediaSubsession--><rect fill="#FEFECE" filter="url(#fwojk7y7ilyc)" height="48" id="ProxyServerMediaSubsession" style="stroke: #A80036; stroke-width: 1.5;" width="196" x="1634.5" y="440"/><ellipse cx="1649.5" cy="456" fill="#ADD1B2" rx="11" ry="11" style="stroke: #A80036; stroke-width: 1.0;"/><path d="M1648.0781,461.3594 Q1646.2188,461.3594 1645.125,459.9688 Q1644.0313,458.5781 1644.0313,455.5938 Q1644.0313,453.0625 1645.1953,451.4063 Q1646.3594,449.75 1648.3438,449.75 Q1649.8125,449.75 1650.2813,449.875 Q1650.75,450.0781 1650.75,450.0781 Q1650.75,450.0781 1650.75,450.0078 Q1650.75,449.9375 1651.3594,449.0156 L1652.4063,452.6719 L1651.0781,453.0781 Q1650.6094,451.5313 1649.9453,450.8672 Q1649.2813,450.2031 1648.2188,450.2031 Q1647.8281,450.2031 1647.0625,451.7344 Q1646.2969,453.2656 1646.2969,455.5156 Q1646.2969,457.9844 1646.9609,459.375 Q1647.625,460.7656 1648.1563,460.7656 Q1649.2188,460.7656 1649.9766,460 Q1650.7344,459.2344 1651.0781,457.5781 L1652.4063,458.1719 Q1652.0781,459.5781 1651.1797,460.4688 Q1650.2813,461.3594 1648.0781,461.3594 Z "/><text fill="#000000" font-family="sans-serif" font-size="12" lengthAdjust="spacingAndGlyphs" textLength="164" x="1663.5" y="461.5576">ProxyServerMediaSubsession</text><line style="stroke: #A80036; stroke-width: 1.5;" x1="1635.5" x2="1829.5" y1="472" y2="472"/><line style="stroke: #A80036; stroke-width: 1.5;" x1="1635.5" x2="1829.5" y1="480" y2="480"/><!--class ServerMediaSession--><rect fill="#FEFECE" filter="url(#fwojk7y7ilyc)" height="48" id="ServerMediaSession" style="stroke: #A80036; stroke-width: 1.5;" width="146" x="1437.5" y="116"/><ellipse cx="1452.5" cy="132" fill="#ADD1B2" rx="11" ry="11" style="stroke: #A80036; stroke-width: 1.0;"/><path d="M1451.0781,137.3594 Q1449.2188,137.3594 1448.125,135.9688 Q1447.0313,134.5781 1447.0313,131.5938 Q1447.0313,129.0625 1448.1953,127.4063 Q1449.3594,125.75 1451.3438,125.75 Q1452.8125,125.75 1453.2813,125.875 Q1453.75,126.0781 1453.75,126.0781 Q1453.75,126.0781 1453.75,126.0078 Q1453.75,125.9375 1454.3594,125.0156 L1455.4063,128.6719 L1454.0781,129.0781 Q1453.6094,127.5313 1452.9453,126.8672 Q1452.2813,126.2031 1451.2188,126.2031 Q1450.8281,126.2031 1450.0625,127.7344 Q1449.2969,129.2656 1449.2969,131.5156 Q1449.2969,133.9844 1449.9609,135.375 Q1450.625,136.7656 1451.1563,136.7656 Q1452.2188,136.7656 1452.9766,136 Q1453.7344,135.2344 1454.0781,133.5781 L1455.4063,134.1719 Q1455.0781,135.5781 1454.1797,136.4688 Q1453.2813,137.3594 1451.0781,137.3594 Z "/><text fill="#000000" font-family="sans-serif" font-size="12" lengthAdjust="spacingAndGlyphs" textLength="114" x="1466.5" y="137.5576">ServerMediaSession</text><line style="stroke: #A80036; stroke-width: 1.5;" x1="1438.5" x2="1582.5" y1="148" y2="148"/><line style="stroke: #A80036; stroke-width: 1.5;" x1="1438.5" x2="1582.5" y1="156" y2="156"/><!--class ServerMediaSubsession--><rect fill="#FEFECE" filter="url(#fwojk7y7ilyc)" height="48" id="ServerMediaSubsession" style="stroke: #A80036; stroke-width: 1.5;" width="167" x="1890" y="116"/><ellipse cx="1905" cy="132" fill="#ADD1B2" rx="11" ry="11" style="stroke: #A80036; stroke-width: 1.0;"/><path d="M1903.5781,137.3594 Q1901.7188,137.3594 1900.625,135.9688 Q1899.5313,134.5781 1899.5313,131.5938 Q1899.5313,129.0625 1900.6953,127.4063 Q1901.8594,125.75 1903.8438,125.75 Q1905.3125,125.75 1905.7813,125.875 Q1906.25,126.0781 1906.25,126.0781 Q1906.25,126.0781 1906.25,126.0078 Q1906.25,125.9375 1906.8594,125.0156 L1907.9063,128.6719 L1906.5781,129.0781 Q1906.1094,127.5313 1905.4453,126.8672 Q1904.7813,126.2031 1903.7188,126.2031 Q1903.3281,126.2031 1902.5625,127.7344 Q1901.7969,129.2656 1901.7969,131.5156 Q1901.7969,133.9844 1902.4609,135.375 Q1903.125,136.7656 1903.6563,136.7656 Q1904.7188,136.7656 1905.4766,136 Q1906.2344,135.2344 1906.5781,133.5781 L1907.9063,134.1719 Q1907.5781,135.5781 1906.6797,136.4688 Q1905.7813,137.3594 1903.5781,137.3594 Z "/><text fill="#000000" font-family="sans-serif" font-size="12" lengthAdjust="spacingAndGlyphs" textLength="135" x="1919" y="137.5576">ServerMediaSubsession</text><line style="stroke: #A80036; stroke-width: 1.5;" x1="1891" x2="2056" y1="148" y2="148"/><line style="stroke: #A80036; stroke-width: 1.5;" x1="1891" x2="2056" y1="156" y2="156"/><!--class ServerMediaSubsessionIterator--><rect fill="#FEFECE" filter="url(#fwojk7y7ilyc)" height="48" id="ServerMediaSubsessionIterator" style="stroke: #A80036; stroke-width: 1.5;" width="205" x="1871" y="8"/><ellipse cx="1886" cy="24" fill="#ADD1B2" rx="11" ry="11" style="stroke: #A80036; stroke-width: 1.0;"/><path d="M1884.5781,29.3594 Q1882.7188,29.3594 1881.625,27.9688 Q1880.5313,26.5781 1880.5313,23.5938 Q1880.5313,21.0625 1881.6953,19.4063 Q1882.8594,17.75 1884.8438,17.75 Q1886.3125,17.75 1886.7813,17.875 Q1887.25,18.0781 1887.25,18.0781 Q1887.25,18.0781 1887.25,18.0078 Q1887.25,17.9375 1887.8594,17.0156 L1888.9063,20.6719 L1887.5781,21.0781 Q1887.1094,19.5313 1886.4453,18.8672 Q1885.7813,18.2031 1884.7188,18.2031 Q1884.3281,18.2031 1883.5625,19.7344 Q1882.7969,21.2656 1882.7969,23.5156 Q1882.7969,25.9844 1883.4609,27.375 Q1884.125,28.7656 1884.6563,28.7656 Q1885.7188,28.7656 1886.4766,28 Q1887.2344,27.2344 1887.5781,25.5781 L1888.9063,26.1719 Q1888.5781,27.5781 1887.6797,28.4688 Q1886.7813,29.3594 1884.5781,29.3594 Z "/><text fill="#000000" font-family="sans-serif" font-size="12" lengthAdjust="spacingAndGlyphs" textLength="173" x="1900" y="29.5576">ServerMediaSubsessionIterator</text><line style="stroke: #A80036; stroke-width: 1.5;" x1="1872" x2="2075" y1="40" y2="40"/><line style="stroke: #A80036; stroke-width: 1.5;" x1="1872" x2="2075" y1="48" y2="48"/><!--class FramedSource--><rect fill="#FEFECE" filter="url(#fwojk7y7ilyc)" height="48" id="FramedSource" style="stroke: #A80036; stroke-width: 1.5;" width="114" x="2295.5" y="8"/><ellipse cx="2310.5" cy="24" fill="#ADD1B2" rx="11" ry="11" style="stroke: #A80036; stroke-width: 1.0;"/><path d="M2309.0781,29.3594 Q2307.2188,29.3594 2306.125,27.9688 Q2305.0313,26.5781 2305.0313,23.5938 Q2305.0313,21.0625 2306.1953,19.4063 Q2307.3594,17.75 2309.3438,17.75 Q2310.8125,17.75 2311.2813,17.875 Q2311.75,18.0781 2311.75,18.0781 Q2311.75,18.0781 2311.75,18.0078 Q2311.75,17.9375 2312.3594,17.0156 L2313.4063,20.6719 L2312.0781,21.0781 Q2311.6094,19.5313 2310.9453,18.8672 Q2310.2813,18.2031 2309.2188,18.2031 Q2308.8281,18.2031 2308.0625,19.7344 Q2307.2969,21.2656 2307.2969,23.5156 Q2307.2969,25.9844 2307.9609,27.375 Q2308.625,28.7656 2309.1563,28.7656 Q2310.2188,28.7656 2310.9766,28 Q2311.7344,27.2344 2312.0781,25.5781 L2313.4063,26.1719 Q2313.0781,27.5781 2312.1797,28.4688 Q2311.2813,29.3594 2309.0781,29.3594 Z "/><text fill="#000000" font-family="sans-serif" font-size="12" lengthAdjust="spacingAndGlyphs" textLength="82" x="2324.5" y="29.5576">FramedSource</text><line style="stroke: #A80036; stroke-width: 1.5;" x1="2296.5" x2="2408.5" y1="40" y2="40"/><line style="stroke: #A80036; stroke-width: 1.5;" x1="2296.5" x2="2408.5" y1="48" y2="48"/><!--class FramedFilter--><rect fill="#FEFECE" filter="url(#fwojk7y7ilyc)" height="48" id="FramedFilter" style="stroke: #A80036; stroke-width: 1.5;" width="102" x="2301.5" y="116"/><ellipse cx="2316.5" cy="132" fill="#ADD1B2" rx="11" ry="11" style="stroke: #A80036; stroke-width: 1.0;"/><path d="M2315.0781,137.3594 Q2313.2188,137.3594 2312.125,135.9688 Q2311.0313,134.5781 2311.0313,131.5938 Q2311.0313,129.0625 2312.1953,127.4063 Q2313.3594,125.75 2315.3438,125.75 Q2316.8125,125.75 2317.2813,125.875 Q2317.75,126.0781 2317.75,126.0781 Q2317.75,126.0781 2317.75,126.0078 Q2317.75,125.9375 2318.3594,125.0156 L2319.4063,128.6719 L2318.0781,129.0781 Q2317.6094,127.5313 2316.9453,126.8672 Q2316.2813,126.2031 2315.2188,126.2031 Q2314.8281,126.2031 2314.0625,127.7344 Q2313.2969,129.2656 2313.2969,131.5156 Q2313.2969,133.9844 2313.9609,135.375 Q2314.625,136.7656 2315.1563,136.7656 Q2316.2188,136.7656 2316.9766,136 Q2317.7344,135.2344 2318.0781,133.5781 L2319.4063,134.1719 Q2319.0781,135.5781 2318.1797,136.4688 Q2317.2813,137.3594 2315.0781,137.3594 Z "/><text fill="#000000" font-family="sans-serif" font-size="12" lengthAdjust="spacingAndGlyphs" textLength="70" x="2330.5" y="137.5576">FramedFilter</text><line style="stroke: #A80036; stroke-width: 1.5;" x1="2302.5" x2="2402.5" y1="148" y2="148"/><line style="stroke: #A80036; stroke-width: 1.5;" x1="2302.5" x2="2402.5" y1="156" y2="156"/><!--class PresentationTimeSubsessionNormalizer--><rect fill="#FEFECE" filter="url(#fwojk7y7ilyc)" height="48" id="PresentationTimeSubsessionNormalizer" style="stroke: #A80036; stroke-width: 1.5;" width="257" x="2224" y="224"/><ellipse cx="2239" cy="240" fill="#ADD1B2" rx="11" ry="11" style="stroke: #A80036; stroke-width: 1.0;"/><path d="M2237.5781,245.3594 Q2235.7188,245.3594 2234.625,243.9688 Q2233.5313,242.5781 2233.5313,239.5938 Q2233.5313,237.0625 2234.6953,235.4063 Q2235.8594,233.75 2237.8438,233.75 Q2239.3125,233.75 2239.7813,233.875 Q2240.25,234.0781 2240.25,234.0781 Q2240.25,234.0781 2240.25,234.0078 Q2240.25,233.9375 2240.8594,233.0156 L2241.9063,236.6719 L2240.5781,237.0781 Q2240.1094,235.5313 2239.4453,234.8672 Q2238.7813,234.2031 2237.7188,234.2031 Q2237.3281,234.2031 2236.5625,235.7344 Q2235.7969,237.2656 2235.7969,239.5156 Q2235.7969,241.9844 2236.4609,243.375 Q2237.125,244.7656 2237.6563,244.7656 Q2238.7188,244.7656 2239.4766,244 Q2240.2344,243.2344 2240.5781,241.5781 L2241.9063,242.1719 Q2241.5781,243.5781 2240.6797,244.4688 Q2239.7813,245.3594 2237.5781,245.3594 Z "/><text fill="#000000" font-family="sans-serif" font-size="12" lengthAdjust="spacingAndGlyphs" textLength="225" x="2253" y="245.5576">PresentationTimeSubsessionNormalizer</text><line style="stroke: #A80036; stroke-width: 1.5;" x1="2225" x2="2480" y1="256" y2="256"/><line style="stroke: #A80036; stroke-width: 1.5;" x1="2225" x2="2480" y1="264" y2="264"/><!--class PresentationTimeSessionNormalizer--><rect fill="#FEFECE" filter="url(#fwojk7y7ilyc)" height="48" id="PresentationTimeSessionNormalizer" style="stroke: #A80036; stroke-width: 1.5;" width="236" x="1618.5" y="116"/><ellipse cx="1633.5" cy="132" fill="#ADD1B2" rx="11" ry="11" style="stroke: #A80036; stroke-width: 1.0;"/><path d="M1632.0781,137.3594 Q1630.2188,137.3594 1629.125,135.9688 Q1628.0313,134.5781 1628.0313,131.5938 Q1628.0313,129.0625 1629.1953,127.4063 Q1630.3594,125.75 1632.3438,125.75 Q1633.8125,125.75 1634.2813,125.875 Q1634.75,126.0781 1634.75,126.0781 Q1634.75,126.0781 1634.75,126.0078 Q1634.75,125.9375 1635.3594,125.0156 L1636.4063,128.6719 L1635.0781,129.0781 Q1634.6094,127.5313 1633.9453,126.8672 Q1633.2813,126.2031 1632.2188,126.2031 Q1631.8281,126.2031 1631.0625,127.7344 Q1630.2969,129.2656 1630.2969,131.5156 Q1630.2969,133.9844 1630.9609,135.375 Q1631.625,136.7656 1632.1563,136.7656 Q1633.2188,136.7656 1633.9766,136 Q1634.7344,135.2344 1635.0781,133.5781 L1636.4063,134.1719 Q1636.0781,135.5781 1635.1797,136.4688 Q1634.2813,137.3594 1632.0781,137.3594 Z "/><text fill="#000000" font-family="sans-serif" font-size="12" lengthAdjust="spacingAndGlyphs" textLength="204" x="1647.5" y="137.5576">PresentationTimeSessionNormalizer</text><line style="stroke: #A80036; stroke-width: 1.5;" x1="1619.5" x2="1853.5" y1="148" y2="148"/><line style="stroke: #A80036; stroke-width: 1.5;" x1="1619.5" x2="1853.5" y1="156" y2="156"/><!--class OnDemandServerMediaSubsession--><rect fill="#FEFECE" filter="url(#fwojk7y7ilyc)" height="48" id="OnDemandServerMediaSubsession" style="stroke: #A80036; stroke-width: 1.5;" width="231" x="1908" y="224"/><ellipse cx="1923" cy="240" fill="#ADD1B2" rx="11" ry="11" style="stroke: #A80036; stroke-width: 1.0;"/><path d="M1921.5781,245.3594 Q1919.7188,245.3594 1918.625,243.9688 Q1917.5313,242.5781 1917.5313,239.5938 Q1917.5313,237.0625 1918.6953,235.4063 Q1919.8594,233.75 1921.8438,233.75 Q1923.3125,233.75 1923.7813,233.875 Q1924.25,234.0781 1924.25,234.0781 Q1924.25,234.0781 1924.25,234.0078 Q1924.25,233.9375 1924.8594,233.0156 L1925.9063,236.6719 L1924.5781,237.0781 Q1924.1094,235.5313 1923.4453,234.8672 Q1922.7813,234.2031 1921.7188,234.2031 Q1921.3281,234.2031 1920.5625,235.7344 Q1919.7969,237.2656 1919.7969,239.5156 Q1919.7969,241.9844 1920.4609,243.375 Q1921.125,244.7656 1921.6563,244.7656 Q1922.7188,244.7656 1923.4766,244 Q1924.2344,243.2344 1924.5781,241.5781 L1925.9063,242.1719 Q1925.5781,243.5781 1924.6797,244.4688 Q1923.7813,245.3594 1921.5781,245.3594 Z "/><text fill="#000000" font-family="sans-serif" font-size="12" lengthAdjust="spacingAndGlyphs" textLength="199" x="1937" y="245.5576">OnDemandServerMediaSubsession</text><line style="stroke: #A80036; stroke-width: 1.5;" x1="1909" x2="2138" y1="256" y2="256"/><line style="stroke: #A80036; stroke-width: 1.5;" x1="1909" x2="2138" y1="264" y2="264"/><!--class Destinations--><rect fill="#FEFECE" filter="url(#fwojk7y7ilyc)" height="48" id="Destinations" style="stroke: #A80036; stroke-width: 1.5;" width="102" x="2135.5" y="8"/><ellipse cx="2150.5" cy="24" fill="#ADD1B2" rx="11" ry="11" style="stroke: #A80036; stroke-width: 1.0;"/><path d="M2149.0781,29.3594 Q2147.2188,29.3594 2146.125,27.9688 Q2145.0313,26.5781 2145.0313,23.5938 Q2145.0313,21.0625 2146.1953,19.4063 Q2147.3594,17.75 2149.3438,17.75 Q2150.8125,17.75 2151.2813,17.875 Q2151.75,18.0781 2151.75,18.0781 Q2151.75,18.0781 2151.75,18.0078 Q2151.75,17.9375 2152.3594,17.0156 L2153.4063,20.6719 L2152.0781,21.0781 Q2151.6094,19.5313 2150.9453,18.8672 Q2150.2813,18.2031 2149.2188,18.2031 Q2148.8281,18.2031 2148.0625,19.7344 Q2147.2969,21.2656 2147.2969,23.5156 Q2147.2969,25.9844 2147.9609,27.375 Q2148.625,28.7656 2149.1563,28.7656 Q2150.2188,28.7656 2150.9766,28 Q2151.7344,27.2344 2152.0781,25.5781 L2153.4063,26.1719 Q2153.0781,27.5781 2152.1797,28.4688 Q2151.2813,29.3594 2149.0781,29.3594 Z "/><text fill="#000000" font-family="sans-serif" font-size="12" lengthAdjust="spacingAndGlyphs" textLength="70" x="2164.5" y="29.5576">Destinations</text><line style="stroke: #A80036; stroke-width: 1.5;" x1="2136.5" x2="2236.5" y1="40" y2="40"/><line style="stroke: #A80036; stroke-width: 1.5;" x1="2136.5" x2="2236.5" y1="48" y2="48"/><!--class StreamState--><rect fill="#FEFECE" filter="url(#fwojk7y7ilyc)" height="48" id="StreamState" style="stroke: #A80036; stroke-width: 1.5;" width="100" x="2163.5" y="116"/><ellipse cx="2178.5" cy="132" fill="#ADD1B2" rx="11" ry="11" style="stroke: #A80036; stroke-width: 1.0;"/><path d="M2177.0781,137.3594 Q2175.2188,137.3594 2174.125,135.9688 Q2173.0313,134.5781 2173.0313,131.5938 Q2173.0313,129.0625 2174.1953,127.4063 Q2175.3594,125.75 2177.3438,125.75 Q2178.8125,125.75 2179.2813,125.875 Q2179.75,126.0781 2179.75,126.0781 Q2179.75,126.0781 2179.75,126.0078 Q2179.75,125.9375 2180.3594,125.0156 L2181.4063,128.6719 L2180.0781,129.0781 Q2179.6094,127.5313 2178.9453,126.8672 Q2178.2813,126.2031 2177.2188,126.2031 Q2176.8281,126.2031 2176.0625,127.7344 Q2175.2969,129.2656 2175.2969,131.5156 Q2175.2969,133.9844 2175.9609,135.375 Q2176.625,136.7656 2177.1563,136.7656 Q2178.2188,136.7656 2178.9766,136 Q2179.7344,135.2344 2180.0781,133.5781 L2181.4063,134.1719 Q2181.0781,135.5781 2180.1797,136.4688 Q2179.2813,137.3594 2177.0781,137.3594 Z "/><text fill="#000000" font-family="sans-serif" font-size="12" lengthAdjust="spacingAndGlyphs" textLength="68" x="2192.5" y="137.5576">StreamState</text><line style="stroke: #A80036; stroke-width: 1.5;" x1="2164.5" x2="2262.5" y1="148" y2="148"/><line style="stroke: #A80036; stroke-width: 1.5;" x1="2164.5" x2="2262.5" y1="156" y2="156"/><!--class HandlerServerForREGISTERCommand--><rect fill="#FEFECE" filter="url(#fwojk7y7ilyc)" height="48" id="HandlerServerForREGISTERCommand" style="stroke: #A80036; stroke-width: 1.5;" width="249" x="1112" y="332"/><ellipse cx="1127" cy="348" fill="#ADD1B2" rx="11" ry="11" style="stroke: #A80036; stroke-width: 1.0;"/><path d="M1125.5781,353.3594 Q1123.7188,353.3594 1122.625,351.9688 Q1121.5313,350.5781 1121.5313,347.5938 Q1121.5313,345.0625 1122.6953,343.4063 Q1123.8594,341.75 1125.8438,341.75 Q1127.3125,341.75 1127.7813,341.875 Q1128.25,342.0781 1128.25,342.0781 Q1128.25,342.0781 1128.25,342.0078 Q1128.25,341.9375 1128.8594,341.0156 L1129.9063,344.6719 L1128.5781,345.0781 Q1128.1094,343.5313 1127.4453,342.8672 Q1126.7813,342.2031 1125.7188,342.2031 Q1125.3281,342.2031 1124.5625,343.7344 Q1123.7969,345.2656 1123.7969,347.5156 Q1123.7969,349.9844 1124.4609,351.375 Q1125.125,352.7656 1125.6563,352.7656 Q1126.7188,352.7656 1127.4766,352 Q1128.2344,351.2344 1128.5781,349.5781 L1129.9063,350.1719 Q1129.5781,351.5781 1128.6797,352.4688 Q1127.7813,353.3594 1125.5781,353.3594 Z "/><text fill="#000000" font-family="sans-serif" font-size="12" lengthAdjust="spacingAndGlyphs" textLength="217" x="1141" y="353.5576">HandlerServerForREGISTERCommand</text><line style="stroke: #A80036; stroke-width: 1.5;" x1="1113" x2="1360" y1="364" y2="364"/><line style="stroke: #A80036; stroke-width: 1.5;" x1="1113" x2="1360" y1="372" y2="372"/><!--link Medium to GenericMediaServer--><path d="M1452.74,46.397 C1369.43,65.721 1215.64,101.393 1125.18,122.374 " fill="none" id="Medium-GenericMediaServer" style="stroke: #A80036; stroke-width: 1.0; stroke-dasharray: 7.0,7.0;"/><polygon fill="none" points="1451.26,39.555,1472.32,41.855,1454.42,53.193,1451.26,39.555" style="stroke: #A80036; stroke-width: 1.0;"/><!--link GenericMediaServer to ClientConnection--><path d="M966.871,158.659 C867.892,178.835 707.327,211.566 611.917,231.015 " fill="none" id="GenericMediaServer-ClientConnection" style="stroke: #A80036; stroke-width: 1.0;"/><polygon fill="#A80036" points="597.183,234.018,606.8005,236.1401,602.0823,233.0195,605.2029,228.3012,597.183,234.018" style="stroke: #A80036; stroke-width: 1.0;"/><line style="stroke: #A80036; stroke-width: 1.0;" x1="602.0823" x2="611.8805" y1="233.0195" y2="231.0225"/><ellipse cx="973.9032" cy="157.2258" fill="#FFFFFF" rx="8" ry="8" style="stroke: #A80036; stroke-width: 1.0;"/><line style="stroke: #A80036; stroke-width: 1.0;" x1="966.0644" x2="981.742" y1="158.8236" y2="155.628"/><line style="stroke: #A80036; stroke-width: 1.0;" x1="972.3054" x2="975.501" y1="149.387" y2="165.0646"/><!--link GenericMediaServer to ClientSession--><path d="M1078.55,176.402 C1086.46,187.59 1095.22,199.96 1103.15,211.178 " fill="none" id="GenericMediaServer-ClientSession" style="stroke: #A80036; stroke-width: 1.0;"/><polygon fill="#A80036" points="1112,223.678,1110.066,214.0209,1109.1116,219.5967,1103.5359,218.6423,1112,223.678" style="stroke: #A80036; stroke-width: 1.0;"/><line style="stroke: #A80036; stroke-width: 1.0;" x1="1109.1116" x2="1103.335" y1="219.5967" y2="211.4335"/><ellipse cx="1074.3914" cy="170.5301" fill="#FFFFFF" rx="8" ry="8" style="stroke: #A80036; stroke-width: 1.0;"/><line style="stroke: #A80036; stroke-width: 1.0;" x1="1079.0128" x2="1069.77" y1="177.0603" y2="164"/><line style="stroke: #A80036; stroke-width: 1.0;" x1="1067.8612" x2="1080.9215" y1="175.1515" y2="165.9088"/><!--link GenericMediaServer to RTSPServer--><path d="M1027.38,181.134 C1018.02,195.499 1007.8,211.207 999.681,223.678 " fill="none" id="GenericMediaServer-RTSPServer" style="stroke: #A80036; stroke-width: 1.0; stroke-dasharray: 7.0,7.0;"/><polygon fill="none" points="1021.75,176.943,1038.53,164,1033.48,184.581,1021.75,176.943" style="stroke: #A80036; stroke-width: 1.0;"/><!--link RTSPServer to RTSPServerWithREGISTERProxying--><path d="M916.364,278.845 C878.023,295.639 830.868,316.293 795.344,331.853 " fill="none" id="RTSPServer-RTSPServerWithREGISTERProxying" style="stroke: #A80036; stroke-width: 1.0;"/><polygon fill="none" points="913.816,272.319,934.944,270.706,919.433,285.143,913.816,272.319" style="stroke: #A80036; stroke-width: 1.0;"/><!--link RTSPServer to RTSPClientConnection--><path d="M919.709,254.861 C801.452,266.073 542.95,292.964 327.5,332 C326.609,332.162 325.713,332.326 324.814,332.493 " fill="none" id="RTSPServer-RTSPClientConnection" style="stroke: #A80036; stroke-width: 1.0;"/><polygon fill="#A80036" points="310.023,335.421,319.6284,337.5973,314.9278,334.4501,318.075,329.7496,310.023,335.421" style="stroke: #A80036; stroke-width: 1.0;"/><line style="stroke: #A80036; stroke-width: 1.0;" x1="314.9278" x2="324.7375" y1="334.4501" y2="332.5085"/><ellipse cx="926.8071" cy="254.1942" fill="#FFFFFF" rx="8" ry="8" style="stroke: #A80036; stroke-width: 1.0;"/><line style="stroke: #A80036; stroke-width: 1.0;" x1="918.8421" x2="934.772" y1="254.9424" y2="253.446"/><line style="stroke: #A80036; stroke-width: 1.0;" x1="926.0589" x2="927.5553" y1="246.2293" y2="262.1591"/><!--link ClientConnection to RTSPClientConnection--><path d="M450.98,277.868 C402.355,294.879 341.676,316.107 296.291,331.984 " fill="none" id="ClientConnection-RTSPClientConnection" style="stroke: #A80036; stroke-width: 1.0;"/><polygon fill="none" points="448.792,271.218,469.981,271.221,453.415,284.433,448.792,271.218" style="stroke: #A80036; stroke-width: 1.0;"/><!--link RTSPServer to RTSPClientSession--><path d="M1048.95,270.273 C1051.15,270.875 1053.34,271.452 1055.5,272 C1197.03,307.907 1235.95,300.381 1378.5,332 C1379.49,332.22 1380.49,332.443 1381.49,332.669 " fill="none" id="RTSPServer-RTSPClientSession" style="stroke: #A80036; stroke-width: 1.0;"/><polygon fill="#A80036" points="1396.2,336.11,1388.3523,330.1591,1391.3323,334.9674,1386.524,337.9474,1396.2,336.11" style="stroke: #A80036; stroke-width: 1.0;"/><line style="stroke: #A80036; stroke-width: 1.0;" x1="1391.3323" x2="1381.59" y1="334.9674" y2="332.693"/><ellipse cx="1041.9844" cy="268.2549" fill="#FFFFFF" rx="8" ry="8" style="stroke: #A80036; stroke-width: 1.0;"/><line style="stroke: #A80036; stroke-width: 1.0;" x1="1049.6688" x2="1034.3" y1="270.4799" y2="266.03"/><line style="stroke: #A80036; stroke-width: 1.0;" x1="1039.7595" x2="1044.2093" y1="275.9393" y2="260.5705"/><!--link ClientSession to RTSPClientSession--><path d="M1203.11,272.328 C1260.65,290.322 1339.73,315.049 1396.38,332.763 " fill="none" id="ClientSession-RTSPClientSession" style="stroke: #A80036; stroke-width: 1.0;"/><polygon fill="none" points="1200.72,278.916,1183.72,266.267,1204.9,265.554,1200.72,278.916" style="stroke: #A80036; stroke-width: 1.0;"/><!--link RTSPClientSession to streamState--><path d="M1467.5,395.227 C1467.5,404.7529 1467.5,414.9707 1467.5,424.5092 " fill="none" id="RTSPClientSession-streamState" style="stroke: #A80036; stroke-width: 1.0;"/><polygon fill="#A80036" points="1467.5,439.6784,1471.5,430.6784,1467.5,434.6784,1463.5,430.6784,1467.5,439.6784" style="stroke: #A80036; stroke-width: 1.0;"/><line style="stroke: #A80036; stroke-width: 1.0;" x1="1467.5" x2="1467.5" y1="434.6784" y2="424.6785"/><ellipse cx="1467.5001" cy="388" fill="#FFFFFF" rx="8" ry="8" style="stroke: #A80036; stroke-width: 1.0;"/><line style="stroke: #A80036; stroke-width: 1.0;" x1="1467.5002" x2="1467.5" y1="396" y2="380"/><line style="stroke: #A80036; stroke-width: 1.0;" x1="1459.5001" x2="1475.5001" y1="388.0001" y2="387.9999"/><!--link RTSPServer to ServerMediaSessionIterator--><path d="M984.5,287.227 C984.5,296.753 984.5,306.971 984.5,316.509 " fill="none" id="RTSPServer-ServerMediaSessionIterator" style="stroke: #A80036; stroke-width: 1.0;"/><polygon fill="#A80036" points="984.5,331.678,988.5,322.678,984.5,326.678,980.5,322.678,984.5,331.678" style="stroke: #A80036; stroke-width: 1.0;"/><line style="stroke: #A80036; stroke-width: 1.0;" x1="984.5" x2="984.5" y1="326.678" y2="316.678"/><ellipse cx="984.5" cy="280" fill="#FFFFFF" rx="8" ry="8" style="stroke: #A80036; stroke-width: 1.0;"/><line style="stroke: #A80036; stroke-width: 1.0;" x1="984.5" x2="984.5" y1="288" y2="272"/><line style="stroke: #A80036; stroke-width: 1.0;" x1="976.5" x2="992.5" y1="280" y2="280"/><!--link RTSPClientConnection to ParamsForREGISTER--><path d="M186.161,388.9724 C167.695,402.2883 146.297,417.7178 127.831,431.0331 " fill="none" id="RTSPClientConnection-ParamsForREGISTER" style="stroke: #A80036; stroke-width: 1.0;"/><polygon fill="#A80036" points="115.588,439.8617,125.2276,437.8424,119.6436,436.9374,120.5487,431.3534,115.588,439.8617" style="stroke: #A80036; stroke-width: 1.0;"/><line style="stroke: #A80036; stroke-width: 1.0;" x1="119.6436" x2="127.7545" y1="436.9374" y2="431.0884"/><ellipse cx="192.1139" cy="384.6788" fill="#FFFFFF" rx="8" ry="8" style="stroke: #A80036; stroke-width: 1.0;"/><line style="stroke: #A80036; stroke-width: 1.0;" x1="185.6247" x2="198.603" y1="389.3576" y2="380"/><line style="stroke: #A80036; stroke-width: 1.0;" x1="187.4351" x2="196.7927" y1="378.1897" y2="391.1679"/><!--link RTSPServer to RTSPServerSupportingHTTPStreaming--><path d="M914.9,263.298 C829.123,280.918 682.264,311.087 580.532,331.986 " fill="none" id="RTSPServer-RTSPServerSupportingHTTPStreaming" style="stroke: #A80036; stroke-width: 1.0;"/><polygon fill="none" points="913.555,256.428,934.555,259.26,916.373,270.141,913.555,256.428" style="stroke: #A80036; stroke-width: 1.0;"/><!--link RTSPServerSupportingHTTPStreaming to RTSPClientConnectionSupportingHTTPStreaming--><path d="M431.358,390.0844 C417.247,402.6541 401.172,416.9726 387.026,429.5736 " fill="none" id="RTSPServerSupportingHTTPStreaming-RTSPClientConnectionSupportingHTTPStreaming" style="stroke: #A80036; stroke-width: 1.0;"/><polygon fill="#A80036" points="375.682,439.6784,385.063,436.679,379.4156,436.3527,379.7419,430.7052,375.682,439.6784" style="stroke: #A80036; stroke-width: 1.0;"/><line style="stroke: #A80036; stroke-width: 1.0;" x1="379.4156" x2="386.883" y1="436.3527" y2="429.7012"/><ellipse cx="436.7051" cy="385.321" fill="#FFFFFF" rx="8" ry="8" style="stroke: #A80036; stroke-width: 1.0;"/><line style="stroke: #A80036; stroke-width: 1.0;" x1="430.7313" x2="442.679" y1="390.642" y2="380"/><line style="stroke: #A80036; stroke-width: 1.0;" x1="431.3841" x2="442.0261" y1="379.3471" y2="391.2949"/><!--link RTSPClientConnection to RTSPClientConnectionSupportingHTTPStreaming--><path d="M271.295,393.3383 C288.52,408.6813 308.072,426.098 323.318,439.6784 " fill="none" id="RTSPClientConnection-RTSPClientConnectionSupportingHTTPStreaming" style="stroke: #A80036; stroke-width: 1.0;"/><polygon fill="none" points="266.6,398.5303,256.321,380,275.912,388.0763,266.6,398.5303" style="stroke: #A80036; stroke-width: 1.0;"/><!--link RTSPServerSupportingHTTPStreaming to DynamicRTSPServer--><path d="M515.63,391.9353 C536.778,407.6113 561.156,425.6823 580.038,439.6784 " fill="none" id="RTSPServerSupportingHTTPStreaming-DynamicRTSPServer" style="stroke: #A80036; stroke-width: 1.0;"/><polygon fill="none" points="511.428,397.5339,499.529,380,519.765,386.287,511.428,397.5339" style="stroke: #A80036; stroke-width: 1.0;"/><!--link Medium to RTSPClient--><path d="M1460.05,67.279 C1436.66,83.173 1409.48,101.645 1388.55,115.862 " fill="none" id="Medium-RTSPClient" style="stroke: #A80036; stroke-width: 1.0; stroke-dasharray: 7.0,7.0;"/><polygon fill="none" points="1456.17,61.451,1476.65,56,1464.04,73.031,1456.17,61.451" style="stroke: #A80036; stroke-width: 1.0;"/><!--link RTSPClient to RequestQueue--><path d="M1330.12,175.007 C1318.73,190.894 1305.45,209.405 1295.22,223.678 " fill="none" id="RTSPClient-RequestQueue" style="stroke: #A80036; stroke-width: 1.0;"/><polygon fill="#A80036" points="1338.01,164,1331.2621,166.5427,1331.0138,173.7495,1337.7618,171.2068,1338.01,164" style="stroke: #A80036; stroke-width: 1.0;"/><!--link RTSPClient to RequestRecord--><path d="M1378.87,174.545 C1390.48,190.534 1404.09,209.267 1414.56,223.678 " fill="none" id="RTSPClient-RequestRecord" style="stroke: #A80036; stroke-width: 1.0;"/><polygon fill="#A80036" points="1371.21,164,1371.5011,171.2052,1378.264,173.7078,1377.9729,166.5026,1371.21,164" style="stroke: #A80036; stroke-width: 1.0;"/><!--link RTSPClient to ProxyRTSPClient--><path d="M1421.01,170.012 C1459.88,186.966 1508.26,208.071 1544.53,223.893 " fill="none" id="RTSPClient-ProxyRTSPClient" style="stroke: #A80036; stroke-width: 1.0;"/><polygon fill="none" points="1418.04,176.355,1402.51,161.942,1423.64,163.523,1418.04,176.355" style="stroke: #A80036; stroke-width: 1.0;"/><!--link ProxyRTSPClient to ProxyServerMediaSession--><path d="M1616.07,272 C1634.85,288.75 1663.63,311.461 1688.09,328.892 " fill="none" id="ProxyRTSPClient-ProxyServerMediaSession" style="stroke: #A80036; stroke-width: 1.0;"/><polygon fill="#A80036" points="1692.28,331.862,1687.2405,323.4001,1688.1974,328.9754,1682.622,329.9323,1692.28,331.862" style="stroke: #A80036; stroke-width: 1.0;"/><!--link ProxyServerMediaSession to ProxyRTSPClient--><path d="M1714.21,331.678 C1695.5,314.911 1666.83,292.295 1642.35,274.955 " fill="none" id="ProxyServerMediaSession-ProxyRTSPClient" style="stroke: #A80036; stroke-width: 1.0;"/><polygon fill="#A80036" points="1638.15,272,1643.1978,280.4569,1642.2355,274.8825,1647.8099,273.9202,1638.15,272" style="stroke: #A80036; stroke-width: 1.0;"/><!--link ProxyRTSPClient to ProxyServerMediaSubsession--><path d="M1598.21,272.066 C1600.04,299.703 1606.31,346.469 1627.5,380 C1642.22,403.2965 1665.84,422.8209 1686.95,437.0684 " fill="none" id="ProxyRTSPClient-ProxyServerMediaSubsession" style="stroke: #A80036; stroke-width: 1.0;"/><polygon fill="#A80036" points="1691.13,439.8471,1685.8328,431.5441,1686.9606,437.0874,1681.4173,438.2152,1691.13,439.8471" style="stroke: #A80036; stroke-width: 1.0;"/><!--link Medium to ServerMediaSession--><path d="M1510.5,76.024 C1510.5,89.579 1510.5,104.038 1510.5,115.678 " fill="none" id="Medium-ServerMediaSession" style="stroke: #A80036; stroke-width: 1.0; stroke-dasharray: 7.0,7.0;"/><polygon fill="none" points="1503.5,76,1510.5,56,1517.5,76,1503.5,76" style="stroke: #A80036; stroke-width: 1.0;"/><!--link Medium to ServerMediaSubsession--><path d="M1568.34,46.242 C1649.33,64.785 1797.02,98.597 1889.96,119.874 " fill="none" id="Medium-ServerMediaSubsession" style="stroke: #A80036; stroke-width: 1.0; stroke-dasharray: 7.0,7.0;"/><polygon fill="none" points="1566.72,53.052,1548.78,41.765,1569.84,39.405,1566.72,53.052" style="stroke: #A80036; stroke-width: 1.0;"/><!--link ServerMediaSubsessionIterator to ServerMediaSubsession--><path d="M1973.5,61.131 C1973.5,78.154 1973.5,99.604 1973.5,115.678 " fill="none" id="ServerMediaSubsessionIterator-ServerMediaSubsession" style="stroke: #A80036; stroke-width: 1.0;"/><polygon fill="#A80036" points="1973.5,56,1969.5,65,1973.5,61,1977.5,65,1973.5,56" style="stroke: #A80036; stroke-width: 1.0;"/><!--link ServerMediaSession to ProxyServerMediaSession--><path d="M1601.96,172.211 C1628.96,184.924 1656.8,201.938 1677.5,224 C1706.53,254.941 1721.38,303.44 1728,331.937 " fill="none" id="ServerMediaSession-ProxyServerMediaSession" style="stroke: #A80036; stroke-width: 1.0;"/><polygon fill="none" points="1598.98,178.549,1583.49,164.089,1604.62,165.734,1598.98,178.549" style="stroke: #A80036; stroke-width: 1.0;"/><!--link ProxyServerMediaSession to ProxyServerMediaSubsession--><path d="M1732.5,380 C1732.5,396.003 1732.5,417.4461 1732.5,434.528 " fill="none" id="ProxyServerMediaSession-ProxyServerMediaSubsession" style="stroke: #A80036; stroke-width: 1.0;"/><polygon fill="#A80036" points="1732.5,439.6784,1736.5,430.6784,1732.5,434.6784,1728.5,430.6784,1732.5,439.6784" style="stroke: #A80036; stroke-width: 1.0;"/><!--link FramedSource to FramedFilter--><path d="M2352.5,76.024 C2352.5,89.579 2352.5,104.038 2352.5,115.678 " fill="none" id="FramedSource-FramedFilter" style="stroke: #A80036; stroke-width: 1.0; stroke-dasharray: 7.0,7.0;"/><polygon fill="none" points="2345.5,76,2352.5,56,2359.5,76,2345.5,76" style="stroke: #A80036; stroke-width: 1.0;"/><!--link FramedFilter to PresentationTimeSubsessionNormalizer--><path d="M2352.5,184.024 C2352.5,197.579 2352.5,212.038 2352.5,223.678 " fill="none" id="FramedFilter-PresentationTimeSubsessionNormalizer" style="stroke: #A80036; stroke-width: 1.0;"/><polygon fill="none" points="2345.5,184,2352.5,164,2359.5,184,2345.5,184" style="stroke: #A80036; stroke-width: 1.0;"/><!--link Medium to PresentationTimeSessionNormalizer--><path d="M1566.8,59.406 C1603.78,76.752 1651.7,99.226 1687.18,115.868 " fill="none" id="Medium-PresentationTimeSessionNormalizer" style="stroke: #A80036; stroke-width: 1.0;"/><polygon fill="none" points="1563.72,65.692,1548.58,50.862,1569.66,53.017,1563.72,65.692" style="stroke: #A80036; stroke-width: 1.0;"/><!--link ServerMediaSubsession to OnDemandServerMediaSubsession--><path d="M1992.88,182.094 C1999.54,196.196 2006.75,211.484 2012.5,223.678 " fill="none" id="ServerMediaSubsession-OnDemandServerMediaSubsession" style="stroke: #A80036; stroke-width: 1.0;"/><polygon fill="none" points="1986.55,185.075,1984.35,164,1999.21,179.103,1986.55,185.075" style="stroke: #A80036; stroke-width: 1.0;"/><!--link Destinations to OnDemandServerMediaSubsession--><path d="M2165.71,60.294 C2133.37,102.75 2071.59,183.861 2041.23,223.72 " fill="none" id="Destinations-OnDemandServerMediaSubsession" style="stroke: #A80036; stroke-width: 1.0;"/><polygon fill="#A80036" points="2168.75,56.309,2160.119,61.053,2165.724,60.2894,2166.4876,65.8945,2168.75,56.309" style="stroke: #A80036; stroke-width: 1.0;"/><!--link Destinations to StreamState--><path d="M2193.67,61.131 C2198,78.154 2203.47,99.604 2207.56,115.678 " fill="none" id="Destinations-StreamState" style="stroke: #A80036; stroke-width: 1.0;"/><polygon fill="#A80036" points="2192.36,56,2190.7067,65.7091,2193.5949,60.8451,2198.4588,63.7333,2192.36,56" style="stroke: #A80036; stroke-width: 1.0;"/><!--link StreamState to OnDemandServerMediaSubsession--><path d="M2167.73,166.535 C2136.44,183.991 2095.3,206.941 2064.97,223.862 " fill="none" id="StreamState-OnDemandServerMediaSubsession" style="stroke: #A80036; stroke-width: 1.0;"/><polygon fill="#A80036" points="2172.27,164,2162.4626,164.9027,2167.9063,166.4409,2166.3681,171.8846,2172.27,164" style="stroke: #A80036; stroke-width: 1.0;"/><!--link OnDemandServerMediaSubsession to ProxyServerMediaSubsession--><path d="M1975.61,284.215 C1915.66,328.305 1814.66,402.5769 1763.79,439.9915 " fill="none" id="OnDemandServerMediaSubsession-ProxyServerMediaSubsession" style="stroke: #A80036; stroke-width: 1.0;"/><polygon fill="none" points="1971.82,278.315,1992.08,272.105,1980.12,289.593,1971.82,278.315" style="stroke: #A80036; stroke-width: 1.0;"/><!--link RTSPServer to HandlerServerForREGISTERCommand--><path d="M1052.92,277.781 C1093.32,294.774 1143.78,315.999 1181.57,331.893 " fill="none" id="RTSPServer-HandlerServerForREGISTERCommand" style="stroke: #A80036; stroke-width: 1.0;"/><polygon fill="none" points="1050.01,284.149,1034.29,269.942,1055.44,271.244,1050.01,284.149" style="stroke: #A80036; stroke-width: 1.0;"/><!--
@startuml


class Medium {
}


class GenericMediaServer {
}
Medium <|.. GenericMediaServer

class ClientConnection {
}
GenericMediaServer +- -> ClientConnection


class ClientSession {
}
GenericMediaServer +- -> ClientSession


class RTSPServer {
}
GenericMediaServer <|.. RTSPServer


class RTSPServerWithREGISTERProxying {
}
RTSPServer <|- - RTSPServerWithREGISTERProxying


class RTSPClientConnection {
}
RTSPServer +- -> RTSPClientConnection
ClientConnection <|- - RTSPClientConnection


class RTSPClientSession {
}
RTSPServer +- -> RTSPClientSession
ClientSession <|- - RTSPClientSession


class streamState {
}
RTSPClientSession +- -> streamState


class ServerMediaSessionIterator {
}
RTSPServer +- -> ServerMediaSessionIterator


class ParamsForREGISTER {
}
RTSPClientConnection +- -> ParamsForREGISTER


class RTSPServerSupportingHTTPStreaming {
}
RTSPServer <|- - RTSPServerSupportingHTTPStreaming


class RTSPClientConnectionSupportingHTTPStreaming {
}
RTSPServerSupportingHTTPStreaming +- -> RTSPClientConnectionSupportingHTTPStreaming
RTSPClientConnection <|- - RTSPClientConnectionSupportingHTTPStreaming


class DynamicRTSPServer {
}
RTSPServerSupportingHTTPStreaming <|- - DynamicRTSPServer


class RTSPClient {
}
Medium <|.. RTSPClient


class RequestQueue {
}
RTSPClient *- - RequestQueue


class RequestRecord {
}
RTSPClient *- - RequestRecord


class ProxyRTSPClient {
}
RTSPClient <|- - ProxyRTSPClient
ProxyRTSPClient - -> ProxyServerMediaSession
ProxyRTSPClient - -> ProxyServerMediaSubsession


class ServerMediaSession {
}
Medium <|.. ServerMediaSession


class ServerMediaSubsession {
}
Medium <|.. ServerMediaSubsession



class ServerMediaSubsessionIterator {
}
ServerMediaSubsessionIterator <- -ServerMediaSubsession


class ProxyServerMediaSession {
}
ServerMediaSession <|- - ProxyServerMediaSession
ProxyServerMediaSession - -> ProxyServerMediaSubsession
ProxyServerMediaSession - -> ProxyRTSPClient


class FramedSource {
}


class FramedFilter {
}
FramedSource <|.. FramedFilter


class PresentationTimeSubsessionNormalizer {
}
FramedFilter <|- - PresentationTimeSubsessionNormalizer


class PresentationTimeSessionNormalizer {
}
Medium <|- - PresentationTimeSessionNormalizer


class OnDemandServerMediaSubsession {
}
ServerMediaSubsession <|- - OnDemandServerMediaSubsession


class Destinations {
}
Destinations <- - OnDemandServerMediaSubsession
Destinations <- - StreamState


class StreamState {
}
StreamState <- - OnDemandServerMediaSubsession


class ProxyServerMediaSubsession {
}
OnDemandServerMediaSubsession <|- - ProxyServerMediaSubsession


class HandlerServerForREGISTERCommand {
}
RTSPServer <|- - HandlerServerForREGISTERCommand


@enduml

PlantUML version 1.2018.00(Fri Jan 05 03:42:56 CST 2018)
(GPL source distribution)
Java Runtime: Java(TM) SE Runtime Environment
JVM: Java HotSpot(TM) 64-Bit Server VM
Java Version: 1.8.0_131-b11
Operating System: Windows 10
OS Version: 10.0
Default Encoding: GBK
Language: zh
Country: CN
--></g></svg>